<?xml version="1.0" encoding="us-ascii" standalone="no"?><svg xmlns="http://www.w3.org/2000/svg" xmlns:xlink="http://www.w3.org/1999/xlink" contentStyleType="text/css" height="487px" preserveAspectRatio="none" style="width:867px;height:487px;background:#FFFFFF;" version="1.1" viewBox="0 0 867 487" width="867px" zoomAndPan="magnify"><defs/><g><ellipse cx="16" cy="244.5" fill="#181818" rx="10" ry="10" style="stroke:none;stroke-width:1.0;"/><g id="&#20102;&#35299;&#33258;&#25105;"><rect fill="#F1F1F1" height="71.8975" rx="12.5" ry="12.5" style="stroke:#181818;stroke-width:0.5;" width="176" x="61" y="208.5"/><line style="stroke:#181818;stroke-width:0.5;" x1="61" x2="237" y1="237.6201" y2="237.6201"/><text fill="#000000" font-family="sans-serif" font-size="14" lengthAdjust="spacing" textLength="56" x="121" y="229.5439">&#20102;&#35299;&#33258;&#25105;</text><text fill="#000000" font-family="sans-serif" font-size="12" lengthAdjust="spacing" textLength="48" x="66" y="256.3721">&#25105;&#26159;&#35841;&#65311;</text><text fill="#000000" font-family="sans-serif" font-size="12" lengthAdjust="spacing" textLength="156" x="66" y="272.7607">&#32844;&#19994;&#29983;&#28079;&#21457;&#23637;&#19982;&#35268;&#21010;&#30340;&#28304;&#22836;&#12290;</text></g><g id="&#20102;&#35299;&#25152;&#26377;&#36873;&#39033;"><rect fill="#F1F1F1" height="71.8975" rx="12.5" ry="12.5" style="stroke:#181818;stroke-width:0.5;" width="104" x="272" y="208.5"/><line style="stroke:#181818;stroke-width:0.5;" x1="272" x2="376" y1="237.6201" y2="237.6201"/><text fill="#000000" font-family="sans-serif" font-size="14" lengthAdjust="spacing" textLength="84" x="282" y="229.5439">&#20102;&#35299;&#25152;&#26377;&#36873;&#39033;</text><text fill="#000000" font-family="sans-serif" font-size="12" lengthAdjust="spacing" textLength="48" x="277" y="256.3721">&#25105;&#22312;&#21738;&#65311;</text><text fill="#000000" font-family="sans-serif" font-size="12" lengthAdjust="spacing" textLength="84" x="277" y="272.7607">&#25105;&#21487;&#20197;&#20570;&#21738;&#20123;&#12290;</text></g><path d="M423.5,7 L598.5,7 A12.5,12.5 0 0 1 611,19.5 L611,36.1201 L411,36.1201 L411,19.5 A12.5,12.5 0 0 1 423.5,7 " fill="#F1F1F1" style="stroke:#F1F1F1;stroke-width:1.0;"/><rect fill="none" height="474.6289" rx="12.5" ry="12.5" style="stroke:#181818;stroke-width:0.5;" width="200" x="411" y="7"/><line style="stroke:#181818;stroke-width:0.5;" x1="411" x2="611" y1="36.1201" y2="36.1201"/><text fill="#000000" font-family="sans-serif" font-size="14" lengthAdjust="spacing" textLength="166" x="428" y="28.0439">&#30693;&#36947;&#25105;&#23558;&#22914;&#20309;&#20915;&#31574;_CASVE</text><g id="&#30693;&#36947;&#25105;&#23558;&#22914;&#20309;&#20915;&#31574;_CASVE.&#27807;&#36890;_Communication"><rect fill="#F1F1F1" height="55.5088" rx="12.5" ry="12.5" style="stroke:#181818;stroke-width:0.5;" width="153" x="449" y="48.1201"/><line style="stroke:#181818;stroke-width:0.5;" x1="449" x2="602" y1="77.2402" y2="77.2402"/><text fill="#000000" font-family="sans-serif" font-size="14" lengthAdjust="spacing" textLength="133" x="459" y="69.1641">&#27807;&#36890;_Communication</text><text fill="#000000" font-family="sans-serif" font-size="12" lengthAdjust="spacing" textLength="48" x="454" y="95.9922">&#23450;&#20301;&#38382;&#39064;</text></g><g id="&#30693;&#36947;&#25105;&#23558;&#22914;&#20309;&#20915;&#31574;_CASVE.&#20998;&#26512;_Analysis"><rect fill="#F1F1F1" height="55.5088" rx="12.5" ry="12.5" style="stroke:#181818;stroke-width:0.5;" width="108" x="430.5" y="140.1201"/><line style="stroke:#181818;stroke-width:0.5;" x1="430.5" x2="538.5" y1="169.2402" y2="169.2402"/><text fill="#000000" font-family="sans-serif" font-size="14" lengthAdjust="spacing" textLength="88" x="440.5" y="161.1641">&#20998;&#26512;_Analysis</text><text fill="#000000" font-family="sans-serif" font-size="12" lengthAdjust="spacing" textLength="60" x="435.5" y="187.9922">&#24605;&#32771;&#21487;&#36873;&#39033;</text></g><g id="&#30693;&#36947;&#25105;&#23558;&#22914;&#20309;&#20915;&#31574;_CASVE.&#32508;&#21512;_Synthesis"><rect fill="#F1F1F1" height="55.5088" rx="12.5" ry="12.5" style="stroke:#181818;stroke-width:0.5;" width="117" x="423" y="232.1201"/><line style="stroke:#181818;stroke-width:0.5;" x1="423" x2="540" y1="261.2402" y2="261.2402"/><text fill="#000000" font-family="sans-serif" font-size="14" lengthAdjust="spacing" textLength="97" x="433" y="253.1641">&#32508;&#21512;_Synthesis</text><text fill="#000000" font-family="sans-serif" font-size="12" lengthAdjust="spacing" textLength="60" x="428" y="279.9922">&#29983;&#25104;&#21487;&#34892;&#39033;</text></g><g id="&#30693;&#36947;&#25105;&#23558;&#22914;&#20309;&#20915;&#31574;_CASVE.&#35780;&#20272;_Valuing"><rect fill="#F1F1F1" height="55.5088" rx="12.5" ry="12.5" style="stroke:#181818;stroke-width:0.5;" width="103" x="434" y="324.1201"/><line style="stroke:#181818;stroke-width:0.5;" x1="434" x2="537" y1="353.2402" y2="353.2402"/><text fill="#000000" font-family="sans-serif" font-size="14" lengthAdjust="spacing" textLength="83" x="444" y="345.1641">&#35780;&#20272;_Valuing</text><text fill="#000000" font-family="sans-serif" font-size="12" lengthAdjust="spacing" textLength="60" x="439" y="371.9922">&#20248;&#20808;&#32423;&#25490;&#24207;</text></g><g id="&#30693;&#36947;&#25105;&#23558;&#22914;&#20309;&#20915;&#31574;_CASVE.&#25191;&#34892;_Execution"><rect fill="#F1F1F1" height="55.5088" rx="12.5" ry="12.5" style="stroke:#181818;stroke-width:0.5;" width="117" x="467" y="416.1201"/><line style="stroke:#181818;stroke-width:0.5;" x1="467" x2="584" y1="445.2402" y2="445.2402"/><text fill="#000000" font-family="sans-serif" font-size="14" lengthAdjust="spacing" textLength="97" x="477" y="437.1641">&#25191;&#34892;_Execution</text><text fill="#000000" font-family="sans-serif" font-size="12" lengthAdjust="spacing" textLength="48" x="472" y="463.9922">&#32553;&#23567;&#24046;&#36317;</text></g><!--link ??_Communication to ??_Analysis--><g id="link_&#27807;&#36890;_Communication_&#20998;&#26512;_Analysis"><path d="M513.2,104.1201 C508.74,113.9101 503.66,125.0601 499.03,135.2301 " fill="none" id="&#27807;&#36890;_Communication-to-&#20998;&#26512;_Analysis" style="stroke:#181818;stroke-width:1.0;"/><polygon fill="#181818" points="496.93,139.8301,504.2957,133.292,498.999,135.2783,497.0128,129.9816,496.93,139.8301" style="stroke:#181818;stroke-width:1.0;"/></g><!--link ??_Analysis to ??_Synthesis--><g id="link_&#20998;&#26512;_Analysis_&#32508;&#21512;_Synthesis"><path d="M483.6,196.1201 C483.28,205.7301 482.92,216.6601 482.58,226.6801 " fill="none" id="&#20998;&#26512;_Analysis-to-&#32508;&#21512;_Synthesis" style="stroke:#181818;stroke-width:1.0;"/><polygon fill="#181818" points="482.41,231.8301,486.716,222.9725,482.5813,226.8331,478.7207,222.6983,482.41,231.8301" style="stroke:#181818;stroke-width:1.0;"/></g><!--link ??_Synthesis to ??_Valuing--><g id="link_&#32508;&#21512;_Synthesis_&#35780;&#20272;_Valuing"><path d="M482.7,288.1201 C483.13,297.7301 483.61,308.6601 484.06,318.6801 " fill="none" id="&#32508;&#21512;_Synthesis-to-&#35780;&#20272;_Valuing" style="stroke:#181818;stroke-width:1.0;"/><polygon fill="#181818" points="484.29,323.8301,487.8736,314.6564,484.061,318.8354,479.882,315.0227,484.29,323.8301" style="stroke:#181818;stroke-width:1.0;"/></g><!--link ??_Valuing to ??_Execution--><g id="link_&#35780;&#20272;_Valuing_&#25191;&#34892;_Execution"><path d="M497.5,380.1201 C501.85,389.9101 506.81,401.0601 511.33,411.2301 " fill="none" id="&#35780;&#20272;_Valuing-to-&#25191;&#34892;_Execution" style="stroke:#181818;stroke-width:1.0;"/><polygon fill="#181818" points="513.37,415.8301,513.3757,405.9813,511.342,411.2599,506.0633,409.2261,513.37,415.8301" style="stroke:#181818;stroke-width:1.0;"/></g><!--link ??_Execution to ??_Communication--><g id="link_&#25191;&#34892;_Execution_&#27807;&#36890;_Communication"><path d="M535.93,415.9301 C539.66,404.9701 543.44,392.1101 545.5,380.1201 C563.55,274.9901 565.91,245.1901 547.5,140.1201 C545.68,129.7201 542.37,118.7501 538.86,108.9301 " fill="none" id="&#25191;&#34892;_Execution-to-&#27807;&#36890;_Communication" style="stroke:#181818;stroke-width:1.0;"/><polygon fill="#181818" points="537.13,104.2001,536.4921,114.0283,538.8605,108.8911,543.9977,111.2595,537.13,104.2001" style="stroke:#181818;stroke-width:1.0;"/></g><g id="&#24605;&#32771;&#25105;&#30340;&#20915;&#31574;&#21046;&#23450;&#36807;&#31243;"><rect fill="#F1F1F1" height="88.2861" rx="12.5" ry="12.5" style="stroke:#181818;stroke-width:0.5;" width="160" x="646" y="200.5"/><line style="stroke:#181818;stroke-width:0.5;" x1="646" x2="806" y1="229.6201" y2="229.6201"/><text fill="#000000" font-family="sans-serif" font-size="14" lengthAdjust="spacing" textLength="140" x="656" y="221.5439">&#24605;&#32771;&#25105;&#30340;&#20915;&#31574;&#21046;&#23450;&#36807;&#31243;</text><text fill="#000000" font-family="sans-serif" font-size="12" lengthAdjust="spacing" textLength="48" x="651" y="248.3721">&#33258;&#25105;&#23545;&#35805;</text><text fill="#000000" font-family="sans-serif" font-size="12" lengthAdjust="spacing" textLength="48" x="651" y="264.7607">&#33258;&#25105;&#35273;&#23519;</text><text fill="#000000" font-family="sans-serif" font-size="12" lengthAdjust="spacing" textLength="84" x="651" y="281.1494">&#33258;&#25105;&#25511;&#21046;&#21644;&#30417;&#30563;</text></g><ellipse cx="851" cy="244.5" fill="none" rx="10" ry="10" style="stroke:#181818;stroke-width:1.0;"/><ellipse cx="851.5" cy="245" fill="#181818" rx="6" ry="6" style="stroke:none;stroke-width:1.0;"/><!--link *start* to ????--><g id="link_*start*_&#20102;&#35299;&#33258;&#25105;"><path d="M26.13,244.5 C35.94,244.5 45.75,244.5 55.56,244.5 " fill="none" id="*start*-to-&#20102;&#35299;&#33258;&#25105;" style="stroke:#181818;stroke-width:1.0;"/><polygon fill="#181818" points="60.69,244.5,51.69,240.5,55.69,244.5,51.69,248.5,60.69,244.5" style="stroke:#181818;stroke-width:1.0;"/></g><!--link ???? to ??????--><g id="link_&#20102;&#35299;&#33258;&#25105;_&#20102;&#35299;&#25152;&#26377;&#36873;&#39033;"><path d="M237.18,244.5 C247,244.5 256.82,244.5 266.64,244.5 " fill="none" id="&#20102;&#35299;&#33258;&#25105;-to-&#20102;&#35299;&#25152;&#26377;&#36873;&#39033;" style="stroke:#181818;stroke-width:1.0;"/><polygon fill="#181818" points="271.77,244.5,262.77,240.5,266.77,244.5,262.77,248.5,271.77,244.5" style="stroke:#181818;stroke-width:1.0;"/></g><!--link ?????? to ????????_CASVE--><g id="link_&#20102;&#35299;&#25152;&#26377;&#36873;&#39033;_&#30693;&#36947;&#25105;&#23558;&#22914;&#20309;&#20915;&#31574;_CASVE"><path d="M376.23,244.5 C386.09,244.5 395.95,244.5 405.82,244.5 " fill="none" id="&#20102;&#35299;&#25152;&#26377;&#36873;&#39033;-to-&#30693;&#36947;&#25105;&#23558;&#22914;&#20309;&#20915;&#31574;_CASVE" style="stroke:#181818;stroke-width:1.0;"/><polygon fill="#181818" points="410.97,244.5,401.97,240.5,405.97,244.5,401.97,248.5,410.97,244.5" style="stroke:#181818;stroke-width:1.0;"/></g><!--link ????????_CASVE to ??????????--><g id="link_&#30693;&#36947;&#25105;&#23558;&#22914;&#20309;&#20915;&#31574;_CASVE_&#24605;&#32771;&#25105;&#30340;&#20915;&#31574;&#21046;&#23450;&#36807;&#31243;"><path d="M611.36,244.5 C621.15,244.5 630.94,244.5 640.72,244.5 " fill="none" id="&#30693;&#36947;&#25105;&#23558;&#22914;&#20309;&#20915;&#31574;_CASVE-to-&#24605;&#32771;&#25105;&#30340;&#20915;&#31574;&#21046;&#23450;&#36807;&#31243;" style="stroke:#181818;stroke-width:1.0;"/><polygon fill="#181818" points="645.84,244.5,636.84,240.5,640.84,244.5,636.84,248.5,645.84,244.5" style="stroke:#181818;stroke-width:1.0;"/></g><!--link ?????????? to *end*--><g id="link_&#24605;&#32771;&#25105;&#30340;&#20915;&#31574;&#21046;&#23450;&#36807;&#31243;_*end*"><path d="M806.08,244.5 C815.94,244.5 825.8,244.5 835.67,244.5 " fill="none" id="&#24605;&#32771;&#25105;&#30340;&#20915;&#31574;&#21046;&#23450;&#36807;&#31243;-to-*end*" style="stroke:#181818;stroke-width:1.0;"/><polygon fill="#181818" points="840.82,244.5,831.82,240.5,835.82,244.5,831.82,248.5,840.82,244.5" style="stroke:#181818;stroke-width:1.0;"/></g><!--SRC=[ZPBBIiD068NtynIp5do1BWGHdq3eHYGKALfeuw8jA2AajTO4QzFMMudMu3LQiAaNlAGH7yRvPoOhNy6PLD36KbtEET-SEJFppuxDuV49JBmoTyxuPflgTVHpyMrIGwD7Hg0PmSaB-Yr9aDaNGM57x89k6IwBv7KFolViPb-Pcfo9JwFHjWoWMejhwu9WLgdlWVu87Ok_RRAhBJJQbW6pOtC8PNE9NFAFCdWLOKplx42pbAcbJ2QlfkOJkTIIYiT53EXbUbnJ9jL4UYMRoWeqeeGKw_bGqvMP5JMtcEnZKIdak5iYVbU99zBvbBeWg44XPAZXy9EAChsSdC_B6h9THEfpGogZDJHCZc7nDEHrEpZe1ATD5Bb1xEknmNI__ZJQFORPhatrcY143qaCzevXuZTXGsUUGwiDy4mKRImI_6lecl3KuKyjD31OudozJfikxnO-V3jYyKA5F5lo-4SNp3hSxf7dAdTAe3V4rrEl1kSFxrfno1Y6iN1q1JljxzZVWEcItWKKB84Hxr16ZPujKIci1kuBTrl_XBbZW6l_4wPLHygD2ZkiizOP-WG0]--></g></svg>