<?xml version="1.0" encoding="us-ascii" standalone="no"?><svg xmlns="http://www.w3.org/2000/svg" xmlns:xlink="http://www.w3.org/1999/xlink" contentStyleType="text/css" height="471px" preserveAspectRatio="none" style="width:867px;height:471px;background:#FFFFFF;" version="1.1" viewBox="0 0 867 471" width="867px" zoomAndPan="magnify"><defs/><g><ellipse cx="16" cy="236" fill="#181818" rx="10" ry="10" style="stroke:none;stroke-width:1.0;"/><g id="&#20102;&#35299;&#33258;&#25105;"><rect fill="#F1F1F1" height="67.7969" rx="12.5" ry="12.5" style="stroke:#181818;stroke-width:0.5;" width="176" x="61" y="202"/><line style="stroke:#181818;stroke-width:0.5;" x1="61" x2="237" y1="229.6094" y2="229.6094"/><text fill="#000000" font-family="sans-serif" font-size="14" lengthAdjust="spacing" textLength="56" x="121" y="221.5332">&#20102;&#35299;&#33258;&#25105;</text><text fill="#000000" font-family="sans-serif" font-size="12" lengthAdjust="spacing" textLength="48" x="66" y="247.0664">&#25105;&#26159;&#35841;&#65311;</text><text fill="#000000" font-family="sans-serif" font-size="12" lengthAdjust="spacing" textLength="156" x="66" y="262.1602">&#32844;&#19994;&#29983;&#28079;&#21457;&#23637;&#19982;&#35268;&#21010;&#30340;&#28304;&#22836;&#12290;</text></g><g id="&#20102;&#35299;&#25152;&#26377;&#36873;&#39033;"><rect fill="#F1F1F1" height="67.7969" rx="12.5" ry="12.5" style="stroke:#181818;stroke-width:0.5;" width="104" x="272" y="202"/><line style="stroke:#181818;stroke-width:0.5;" x1="272" x2="376" y1="229.6094" y2="229.6094"/><text fill="#000000" font-family="sans-serif" font-size="14" lengthAdjust="spacing" textLength="84" x="282" y="221.5332">&#20102;&#35299;&#25152;&#26377;&#36873;&#39033;</text><text fill="#000000" font-family="sans-serif" font-size="12" lengthAdjust="spacing" textLength="48" x="277" y="247.0664">&#25105;&#22312;&#21738;&#65311;</text><text fill="#000000" font-family="sans-serif" font-size="12" lengthAdjust="spacing" textLength="84" x="277" y="262.1602">&#25105;&#21487;&#20197;&#20570;&#21738;&#20123;&#12290;</text></g><path d="M423.5,7 L598.5,7 A12.5,12.5 0 0 1 611,19.5 L611,34.6094 L411,34.6094 L411,19.5 A12.5,12.5 0 0 1 423.5,7 " fill="#F1F1F1" style="stroke:#F1F1F1;stroke-width:1.0;"/><rect fill="none" height="458.3125" rx="12.5" ry="12.5" style="stroke:#181818;stroke-width:0.5;" width="200" x="411" y="7"/><line style="stroke:#181818;stroke-width:0.5;" x1="411" x2="611" y1="34.6094" y2="34.6094"/><text fill="#000000" font-family="sans-serif" font-size="14" lengthAdjust="spacing" textLength="166" x="428" y="26.5332">&#30693;&#36947;&#25105;&#23558;&#22914;&#20309;&#20915;&#31574;_CASVE</text><g id="&#30693;&#36947;&#25105;&#23558;&#22914;&#20309;&#20915;&#31574;_CASVE.&#27807;&#36890;_Communication"><rect fill="#F1F1F1" height="52.7031" rx="12.5" ry="12.5" style="stroke:#181818;stroke-width:0.5;" width="153" x="449" y="46.6094"/><line style="stroke:#181818;stroke-width:0.5;" x1="449" x2="602" y1="74.2188" y2="74.2188"/><text fill="#000000" font-family="sans-serif" font-size="14" lengthAdjust="spacing" textLength="133" x="459" y="66.1426">&#27807;&#36890;_Communication</text><text fill="#000000" font-family="sans-serif" font-size="12" lengthAdjust="spacing" textLength="48" x="454" y="91.6758">&#23450;&#20301;&#38382;&#39064;</text></g><g id="&#30693;&#36947;&#25105;&#23558;&#22914;&#20309;&#20915;&#31574;_CASVE.&#20998;&#26512;_Analysis"><rect fill="#F1F1F1" height="52.7031" rx="12.5" ry="12.5" style="stroke:#181818;stroke-width:0.5;" width="108" x="430.5" y="135.6094"/><line style="stroke:#181818;stroke-width:0.5;" x1="430.5" x2="538.5" y1="163.2188" y2="163.2188"/><text fill="#000000" font-family="sans-serif" font-size="14" lengthAdjust="spacing" textLength="88" x="440.5" y="155.1426">&#20998;&#26512;_Analysis</text><text fill="#000000" font-family="sans-serif" font-size="12" lengthAdjust="spacing" textLength="60" x="435.5" y="180.6758">&#24605;&#32771;&#21487;&#36873;&#39033;</text></g><g id="&#30693;&#36947;&#25105;&#23558;&#22914;&#20309;&#20915;&#31574;_CASVE.&#32508;&#21512;_Synthesis"><rect fill="#F1F1F1" height="52.7031" rx="12.5" ry="12.5" style="stroke:#181818;stroke-width:0.5;" width="117" x="423" y="224.6094"/><line style="stroke:#181818;stroke-width:0.5;" x1="423" x2="540" y1="252.2188" y2="252.2188"/><text fill="#000000" font-family="sans-serif" font-size="14" lengthAdjust="spacing" textLength="97" x="433" y="244.1426">&#32508;&#21512;_Synthesis</text><text fill="#000000" font-family="sans-serif" font-size="12" lengthAdjust="spacing" textLength="60" x="428" y="269.6758">&#29983;&#25104;&#21487;&#34892;&#39033;</text></g><g id="&#30693;&#36947;&#25105;&#23558;&#22914;&#20309;&#20915;&#31574;_CASVE.&#35780;&#20272;_Valuing"><rect fill="#F1F1F1" height="52.7031" rx="12.5" ry="12.5" style="stroke:#181818;stroke-width:0.5;" width="103" x="434" y="313.6094"/><line style="stroke:#181818;stroke-width:0.5;" x1="434" x2="537" y1="341.2188" y2="341.2188"/><text fill="#000000" font-family="sans-serif" font-size="14" lengthAdjust="spacing" textLength="83" x="444" y="333.1426">&#35780;&#20272;_Valuing</text><text fill="#000000" font-family="sans-serif" font-size="12" lengthAdjust="spacing" textLength="60" x="439" y="358.6758">&#20248;&#20808;&#32423;&#25490;&#24207;</text></g><g id="&#30693;&#36947;&#25105;&#23558;&#22914;&#20309;&#20915;&#31574;_CASVE.&#25191;&#34892;_Execution"><rect fill="#F1F1F1" height="52.7031" rx="12.5" ry="12.5" style="stroke:#181818;stroke-width:0.5;" width="117" x="467" y="402.6094"/><line style="stroke:#181818;stroke-width:0.5;" x1="467" x2="584" y1="430.2188" y2="430.2188"/><text fill="#000000" font-family="sans-serif" font-size="14" lengthAdjust="spacing" textLength="97" x="477" y="422.1426">&#25191;&#34892;_Execution</text><text fill="#000000" font-family="sans-serif" font-size="12" lengthAdjust="spacing" textLength="48" x="472" y="447.6758">&#32553;&#23567;&#24046;&#36317;</text></g><!--link ??_Communication to ??_Analysis--><g id="link_&#27807;&#36890;_Communication_&#20998;&#26512;_Analysis"><path d="M513.42,99.7394 C508.83,109.4794 503.56,120.6594 498.79,130.7894 " fill="none" id="&#27807;&#36890;_Communication-to-&#20998;&#26512;_Analysis" style="stroke:#181818;stroke-width:1.0;"/><polygon fill="#181818" points="496.63,135.3594,504.0785,128.9158,498.7569,130.8343,496.8384,125.5127,496.63,135.3594" style="stroke:#181818;stroke-width:1.0;"/></g><!--link ??_Analysis to ??_Synthesis--><g id="link_&#20998;&#26512;_Analysis_&#32508;&#21512;_Synthesis"><path d="M483.62,188.7394 C483.29,198.2994 482.91,209.2594 482.56,219.2394 " fill="none" id="&#20998;&#26512;_Analysis-to-&#32508;&#21512;_Synthesis" style="stroke:#181818;stroke-width:1.0;"/><polygon fill="#181818" points="482.39,224.3594,486.696,215.5017,482.5613,219.3623,478.7007,215.2276,482.39,224.3594" style="stroke:#181818;stroke-width:1.0;"/></g><!--link ??_Synthesis to ??_Valuing--><g id="link_&#32508;&#21512;_Synthesis_&#35780;&#20272;_Valuing"><path d="M482.68,277.7394 C483.12,287.2994 483.62,298.2594 484.08,308.2394 " fill="none" id="&#32508;&#21512;_Synthesis-to-&#35780;&#20272;_Valuing" style="stroke:#181818;stroke-width:1.0;"/><polygon fill="#181818" points="484.32,313.3594,487.9036,304.1856,484.091,308.3646,479.912,304.552,484.32,313.3594" style="stroke:#181818;stroke-width:1.0;"/></g><!--link ??_Valuing to ??_Execution--><g id="link_&#35780;&#20272;_Valuing_&#25191;&#34892;_Execution"><path d="M497.28,366.7394 C501.76,376.4794 506.9,387.6594 511.56,397.7894 " fill="none" id="&#35780;&#20272;_Valuing-to-&#25191;&#34892;_Execution" style="stroke:#181818;stroke-width:1.0;"/><polygon fill="#181818" points="513.66,402.3594,513.54,392.5112,511.5738,397.8154,506.2696,395.8492,513.66,402.3594" style="stroke:#181818;stroke-width:1.0;"/></g><!--link ??_Execution to ??_Communication--><g id="link_&#25191;&#34892;_Execution_&#27807;&#36890;_Communication"><path d="M535.61,402.4894 C539.44,391.5994 543.38,378.6594 545.5,366.6094 C563.28,265.4894 565.62,236.6694 547.5,135.6094 C545.63,125.1494 542.18,114.1194 538.56,104.3194 " fill="none" id="&#25191;&#34892;_Execution-to-&#27807;&#36890;_Communication" style="stroke:#181818;stroke-width:1.0;"/><polygon fill="#181818" points="536.77,99.6194,536.221,109.4529,538.5428,104.2945,543.7012,106.6164,536.77,99.6194" style="stroke:#181818;stroke-width:1.0;"/></g><g id="&#24605;&#32771;&#25105;&#30340;&#20915;&#31574;&#21046;&#23450;&#36807;&#31243;"><rect fill="#F1F1F1" height="82.8906" rx="12.5" ry="12.5" style="stroke:#181818;stroke-width:0.5;" width="160" x="646" y="194.5"/><line style="stroke:#181818;stroke-width:0.5;" x1="646" x2="806" y1="222.1094" y2="222.1094"/><text fill="#000000" font-family="sans-serif" font-size="14" lengthAdjust="spacing" textLength="140" x="656" y="214.0332">&#24605;&#32771;&#25105;&#30340;&#20915;&#31574;&#21046;&#23450;&#36807;&#31243;</text><text fill="#000000" font-family="sans-serif" font-size="12" lengthAdjust="spacing" textLength="48" x="651" y="239.5664">&#33258;&#25105;&#23545;&#35805;</text><text fill="#000000" font-family="sans-serif" font-size="12" lengthAdjust="spacing" textLength="48" x="651" y="254.6602">&#33258;&#25105;&#35273;&#23519;</text><text fill="#000000" font-family="sans-serif" font-size="12" lengthAdjust="spacing" textLength="84" x="651" y="269.7539">&#33258;&#25105;&#25511;&#21046;&#21644;&#30417;&#30563;</text></g><ellipse cx="851" cy="236" fill="none" rx="10" ry="10" style="stroke:#181818;stroke-width:1.0;"/><ellipse cx="851.5" cy="236.5" fill="#181818" rx="6" ry="6" style="stroke:none;stroke-width:1.0;"/><!--link *start* to ????--><g id="link_*start*_&#20102;&#35299;&#33258;&#25105;"><path d="M26.13,236 C35.94,236 45.75,236 55.56,236 " fill="none" id="*start*-to-&#20102;&#35299;&#33258;&#25105;" style="stroke:#181818;stroke-width:1.0;"/><polygon fill="#181818" points="60.69,236,51.69,232,55.69,236,51.69,240,60.69,236" style="stroke:#181818;stroke-width:1.0;"/></g><!--link ???? to ??????--><g id="link_&#20102;&#35299;&#33258;&#25105;_&#20102;&#35299;&#25152;&#26377;&#36873;&#39033;"><path d="M237.18,236 C247,236 256.82,236 266.64,236 " fill="none" id="&#20102;&#35299;&#33258;&#25105;-to-&#20102;&#35299;&#25152;&#26377;&#36873;&#39033;" style="stroke:#181818;stroke-width:1.0;"/><polygon fill="#181818" points="271.77,236,262.77,232,266.77,236,262.77,240,271.77,236" style="stroke:#181818;stroke-width:1.0;"/></g><!--link ?????? to ????????_CASVE--><g id="link_&#20102;&#35299;&#25152;&#26377;&#36873;&#39033;_&#30693;&#36947;&#25105;&#23558;&#22914;&#20309;&#20915;&#31574;_CASVE"><path d="M376.23,236 C386.09,236 395.95,236 405.82,236 " fill="none" id="&#20102;&#35299;&#25152;&#26377;&#36873;&#39033;-to-&#30693;&#36947;&#25105;&#23558;&#22914;&#20309;&#20915;&#31574;_CASVE" style="stroke:#181818;stroke-width:1.0;"/><polygon fill="#181818" points="410.97,236,401.97,232,405.97,236,401.97,240,410.97,236" style="stroke:#181818;stroke-width:1.0;"/></g><!--link ????????_CASVE to ??????????--><g id="link_&#30693;&#36947;&#25105;&#23558;&#22914;&#20309;&#20915;&#31574;_CASVE_&#24605;&#32771;&#25105;&#30340;&#20915;&#31574;&#21046;&#23450;&#36807;&#31243;"><path d="M611.36,236 C621.15,236 630.94,236 640.72,236 " fill="none" id="&#30693;&#36947;&#25105;&#23558;&#22914;&#20309;&#20915;&#31574;_CASVE-to-&#24605;&#32771;&#25105;&#30340;&#20915;&#31574;&#21046;&#23450;&#36807;&#31243;" style="stroke:#181818;stroke-width:1.0;"/><polygon fill="#181818" points="645.84,236,636.84,232,640.84,236,636.84,240,645.84,236" style="stroke:#181818;stroke-width:1.0;"/></g><!--link ?????????? to *end*--><g id="link_&#24605;&#32771;&#25105;&#30340;&#20915;&#31574;&#21046;&#23450;&#36807;&#31243;_*end*"><path d="M806.08,236 C815.94,236 825.8,236 835.67,236 " fill="none" id="&#24605;&#32771;&#25105;&#30340;&#20915;&#31574;&#21046;&#23450;&#36807;&#31243;-to-*end*" style="stroke:#181818;stroke-width:1.0;"/><polygon fill="#181818" points="840.82,236,831.82,232,835.82,236,831.82,240,840.82,236" style="stroke:#181818;stroke-width:1.0;"/></g><!--SRC=[ZPBBIiD068NtynIp5do1BWGHdq3eHYGKALfeuw8jA2AajTO4QzFMMudMu3LQiAaNlAGH7yRvPoOhNy6PLD36KbtEET-SEJFppuxDuV49JBmoTyxuPflgTVHpyMrIGwD7Hg0PmSaB-Yr9aDaNGM57x89k6IwBv7KFolViPb-Pcfo9JwFHjWoWMejhwu9WLgdlWVu87Ok_RRAhBJJQbW6pOtC8PNE9NFAFCdWLOKplx42pbAcbJ2QlfkOJkTIIYiT53EXbUbnJ9jL4UYMRoWeqeeGKw_bGqvMP5JMtcEnZKIdak5iYVbU99zBvbBeWg44XPAZXy9EAChsSdC_B6h9THEfpGogZDJHCZc7nDEHrEpZe1ATD5Bb1xEknmNI__ZJQFORPhatrcY143qaCzevXuZTXGsUUGwiDy4mKRImI_6lecl3KuKyjD31OudozJfikxnO-V3jYyKA5F5lo-4SNp3hSxf7dAdTAe3V4rrEl1kSFxrfno1Y6iN1q1JljxzZVWEcItWKKB84Hxr16ZPujKIci1kuBTrl_XBbZW6l_4wPLHygD2ZkiizOP-WG0]--></g></svg>