<?xml version="1.0" encoding="us-ascii" standalone="no"?><svg xmlns="http://www.w3.org/2000/svg" xmlns:xlink="http://www.w3.org/1999/xlink" contentStyleType="text/css" height="298px" preserveAspectRatio="none" style="width:665px;height:298px;background:#FFFFFF;" version="1.1" viewBox="0 0 665 298" width="665px" zoomAndPan="magnify"><defs/><g><ellipse cx="16" cy="67.5" fill="#181818" rx="10" ry="10" style="stroke:none;stroke-width:1.0;"/><g id="HTML4"><rect fill="#F1F1F1" height="121.0635" rx="12.5" ry="12.5" style="stroke:#181818;stroke-width:0.5;" width="97" x="61.5" y="7"/><line style="stroke:#181818;stroke-width:0.5;" x1="61.5" x2="158.5" y1="36.1201" y2="36.1201"/><text fill="#000000" font-family="sans-serif" font-size="14" lengthAdjust="spacing" textLength="45" x="87.5" y="28.0439">HTML4</text><text fill="#000000" font-family="sans-serif" font-size="12" lengthAdjust="spacing" textLength="57" x="66.5" y="54.8721">FrontPage</text><text fill="#000000" font-family="sans-serif" font-size="12" lengthAdjust="spacing" textLength="77" x="66.5" y="71.2607">Dreamweaver</text><text fill="#000000" font-family="sans-serif" font-size="12" lengthAdjust="spacing" textLength="31" x="66.5" y="87.6494">Flash</text><text fill="#000000" font-family="sans-serif" font-size="12" lengthAdjust="spacing" textLength="48" x="66.5" y="104.0381">&#34013;&#33394;&#29702;&#24819;</text><text fill="#000000" font-family="sans-serif" font-size="12" lengthAdjust="spacing" textLength="48" x="66.5" y="120.4268">&#38378;&#23458;&#32852;&#30431;</text></g><g id="XHTML"><rect fill="#F1F1F1" height="88.2861" rx="12.5" ry="12.5" style="stroke:#181818;stroke-width:0.5;" width="156" x="194" y="23.5"/><line style="stroke:#181818;stroke-width:0.5;" x1="194" x2="350" y1="52.6201" y2="52.6201"/><text fill="#000000" font-family="sans-serif" font-size="14" lengthAdjust="spacing" textLength="45" x="249.5" y="44.5439">XHTML</text><text fill="#000000" font-family="sans-serif" font-size="12" lengthAdjust="spacing" textLength="56" x="199" y="71.3721">Eric Meyer</text><text fill="#000000" font-family="sans-serif" font-size="12" lengthAdjust="spacing" textLength="97" x="199" y="87.7607">&#12298;CSS&#31109;&#24847;&#33457;&#22253;&#12299;</text><text fill="#000000" font-family="sans-serif" font-size="12" lengthAdjust="spacing" textLength="136" x="199" y="104.1494">&#12298;Don't Make Me Think&#12299;</text></g><g id="HTML5"><rect fill="#F1F1F1" height="55.5088" rx="12.5" ry="12.5" style="stroke:#181818;stroke-width:0.5;" width="65" x="385.5" y="39.5"/><line style="stroke:#181818;stroke-width:0.5;" x1="385.5" x2="450.5" y1="68.6201" y2="68.6201"/><text fill="#000000" font-family="sans-serif" font-size="14" lengthAdjust="spacing" textLength="45" x="395.5" y="60.5439">HTML5</text><text fill="#000000" font-family="sans-serif" font-size="12" lengthAdjust="spacing" textLength="32" x="390.5" y="87.3721">CSS3</text></g><g id="Ajax"><rect fill="#F1F1F1" height="121.0635" rx="12.5" ry="12.5" style="stroke:#181818;stroke-width:0.5;" width="173" x="485.5" y="7"/><line style="stroke:#181818;stroke-width:0.5;" x1="485.5" x2="658.5" y1="36.1201" y2="36.1201"/><text fill="#000000" font-family="sans-serif" font-size="14" lengthAdjust="spacing" textLength="26" x="559" y="28.0439">Ajax</text><text fill="#000000" font-family="sans-serif" font-size="12" lengthAdjust="spacing" textLength="45" x="490.5" y="54.8721">Web 2.0</text><text fill="#000000" font-family="sans-serif" font-size="12" lengthAdjust="spacing" textLength="35" x="490.5" y="71.2607">jQuery</text><text fill="#000000" font-family="sans-serif" font-size="12" lengthAdjust="spacing" textLength="153" x="490.5" y="87.6494">Prototype and Scriptaculous</text><text fill="#000000" font-family="sans-serif" font-size="12" lengthAdjust="spacing" textLength="98" x="490.5" y="104.0381">mootools and YUI</text><text fill="#000000" font-family="sans-serif" font-size="12" lengthAdjust="spacing" textLength="145" x="490.5" y="120.4268">JavaScript: The good parts</text></g><g id="SPA"><rect fill="#F1F1F1" height="104.6748" rx="12.5" ry="12.5" style="stroke:#181818;stroke-width:0.5;" width="141" x="501.5" y="188"/><line style="stroke:#181818;stroke-width:0.5;" x1="501.5" x2="642.5" y1="217.1201" y2="217.1201"/><text fill="#000000" font-family="sans-serif" font-size="14" lengthAdjust="spacing" textLength="27" x="558.5" y="209.0439">SPA</text><text fill="#000000" font-family="sans-serif" font-size="12" lengthAdjust="spacing" textLength="100" x="506.5" y="235.8721">Web Components</text><text fill="#000000" font-family="sans-serif" font-size="12" lengthAdjust="spacing" textLength="67" x="506.5" y="252.2607">backbone.js</text><text fill="#000000" font-family="sans-serif" font-size="12" lengthAdjust="spacing" textLength="42" x="506.5" y="268.6494">Angular</text><text fill="#000000" font-family="sans-serif" font-size="12" lengthAdjust="spacing" textLength="121" x="506.5" y="285.0381">Node.js and Webpack</text></g><g id="Angular"><rect fill="#F1F1F1" height="55.5088" rx="12.5" ry="12.5" style="stroke:#181818;stroke-width:0.5;" width="96" x="370" y="212.5"/><line style="stroke:#181818;stroke-width:0.5;" x1="370" x2="466" y1="241.6201" y2="241.6201"/><text fill="#000000" font-family="sans-serif" font-size="14" lengthAdjust="spacing" textLength="49" x="393.5" y="233.5439">Angular</text><text fill="#000000" font-family="sans-serif" font-size="12" lengthAdjust="spacing" textLength="76" x="375" y="260.3721">Google Gmail</text></g><g id="React"><rect fill="#F1F1F1" height="55.5088" rx="12.5" ry="12.5" style="stroke:#181818;stroke-width:0.5;" width="70" x="265" y="212.5"/><line style="stroke:#181818;stroke-width:0.5;" x1="265" x2="335" y1="241.6201" y2="241.6201"/><text fill="#000000" font-family="sans-serif" font-size="14" lengthAdjust="spacing" textLength="37" x="281.5" y="233.5439">React</text><text fill="#000000" font-family="sans-serif" font-size="12" lengthAdjust="spacing" textLength="50" x="270" y="260.3721">facebook</text></g><g id="Vue"><rect fill="#F1F1F1" height="71.8975" rx="12.5" ry="12.5" style="stroke:#181818;stroke-width:0.5;" width="71" x="158.5" y="204.5"/><line style="stroke:#181818;stroke-width:0.5;" x1="158.5" x2="229.5" y1="233.6201" y2="233.6201"/><text fill="#000000" font-family="sans-serif" font-size="14" lengthAdjust="spacing" textLength="25" x="181.5" y="225.5439">Vue</text><text fill="#000000" font-family="sans-serif" font-size="12" lengthAdjust="spacing" textLength="51" x="163.5" y="252.3721">Evan You</text><text fill="#000000" font-family="sans-serif" font-size="12" lengthAdjust="spacing" textLength="20" x="163.5" y="268.7607">Vite</text></g><ellipse cx="113" cy="240.5" fill="none" rx="10" ry="10" style="stroke:#181818;stroke-width:1.0;"/><ellipse cx="113.5" cy="241" fill="#181818" rx="6" ry="6" style="stroke:none;stroke-width:1.0;"/><!--link *start* to HTML4--><g id="link_*start*_HTML4"><path d="M26.28,67.5 C36.21,67.5 46.15,67.5 56.08,67.5 " fill="none" id="*start*-to-HTML4" style="stroke:#181818;stroke-width:1.0;"/><polygon fill="#181818" points="61.27,67.5,52.27,63.5,56.27,67.5,52.27,71.5,61.27,67.5" style="stroke:#181818;stroke-width:1.0;"/></g><!--link HTML4 to XHTML--><g id="link_HTML4_XHTML"><path d="M158.73,67.5 C168.65,67.5 178.57,67.5 188.49,67.5 " fill="none" id="HTML4-to-XHTML" style="stroke:#181818;stroke-width:1.0;"/><polygon fill="#181818" points="193.68,67.5,184.68,63.5,188.68,67.5,184.68,71.5,193.68,67.5" style="stroke:#181818;stroke-width:1.0;"/></g><!--link XHTML to HTML5--><g id="link_XHTML_HTML5"><path d="M350.13,67.5 C360.14,67.5 370.15,67.5 380.16,67.5 " fill="none" id="XHTML-to-HTML5" style="stroke:#181818;stroke-width:1.0;"/><polygon fill="#181818" points="385.39,67.5,376.39,63.5,380.39,67.5,376.39,71.5,385.39,67.5" style="stroke:#181818;stroke-width:1.0;"/></g><!--link HTML5 to Ajax--><g id="link_HTML5_Ajax"><path d="M450.79,67.5 C460.6,67.5 470.41,67.5 480.22,67.5 " fill="none" id="HTML5-to-Ajax" style="stroke:#181818;stroke-width:1.0;"/><polygon fill="#181818" points="485.35,67.5,476.35,63.5,480.35,67.5,476.35,71.5,485.35,67.5" style="stroke:#181818;stroke-width:1.0;"/></g><!--link Ajax to SPA--><g id="link_Ajax_SPA"><path d="M572,128.31 C572,145.94 572,165.18 572,182.62 " fill="none" id="Ajax-to-SPA" style="stroke:#181818;stroke-width:1.0;"/><polygon fill="#181818" points="572,187.97,576,178.97,572,182.97,568,178.97,572,187.97" style="stroke:#181818;stroke-width:1.0;"/></g><!--reverse link Angular to SPA--><g id="link_Angular_SPA"><path d="M471.34,240.5 C481.32,240.5 491.3,240.5 501.28,240.5 " fill="none" id="Angular-backto-SPA" style="stroke:#181818;stroke-width:1.0;"/><polygon fill="#181818" points="466.12,240.5,475.1314,244.4743,471.12,240.4857,475.1085,236.4743,466.12,240.5" style="stroke:#181818;stroke-width:1.0;"/></g><!--reverse link React to Angular--><g id="link_React_Angular"><path d="M340.18,240.5 C350.02,240.5 359.87,240.5 369.71,240.5 " fill="none" id="React-backto-Angular" style="stroke:#181818;stroke-width:1.0;"/><polygon fill="#181818" points="335.03,240.5,344.03,244.5,340.03,240.5,344.03,236.5,335.03,240.5" style="stroke:#181818;stroke-width:1.0;"/></g><!--reverse link Vue to React--><g id="link_Vue_React"><path d="M234.83,240.5 C244.82,240.5 254.81,240.5 264.8,240.5 " fill="none" id="Vue-backto-React" style="stroke:#181818;stroke-width:1.0;"/><polygon fill="#181818" points="229.61,240.5,238.61,244.5,234.61,240.5,238.61,236.5,229.61,240.5" style="stroke:#181818;stroke-width:1.0;"/></g><!--reverse link *end* to Vue--><g id="link_*end*_Vue"><path d="M128.34,240.5 C138.32,240.5 148.31,240.5 158.29,240.5 " fill="none" id="*end*-backto-Vue" style="stroke:#181818;stroke-width:1.0;"/><polygon fill="#181818" points="123.12,240.5,132.1314,244.4743,128.12,240.4857,132.1085,236.4743,123.12,240.5" style="stroke:#181818;stroke-width:1.0;"/></g><!--SRC=[JP5DIyD048Rl-olc9WWLyUEIWo1-YvLgjLgAXsawrhJfJjXkghqfVe1wK53m829uy20eg3z9jFLVkBj9YeUTxFlCEvbafZAy0xafMDp8hqm85wtSjZVXOfQTTDb9AwSRU21iW5oDzwKXnSAqC0To8Urgwv3rE4GbqkU0hnFwMhWuOAMOX3a3NHdU4ScNU32lMEe2rYa3iugmjK_O8JNmXDZUoqJ_vg5__j6xFliv_ipOxztBzzjJ_-YsT_-O_9C7Sohm8KzTyvgKV1rUp1IBlUVJdvEh_iNxz_thr-7bl-Gioo4DUMoIgOEDlK0shS4DnGDJEkv6ui4MLM5iP3HLZRMOL3SL1SMQTJSYG5c3eg-2IACVXnotKqUBZOF3jZEKDvTIl8mTJEoUQKrGPwv1X4gtxTYJdZFSYbYIp5WL_MRLW9562hAbEB7ADPjnVKnrPCpPjZnOOAw710ij3C9aMnxieazLvgRTbPbV1oMKEKvKAT0a_W00]--></g></svg>