<?xml version="1.0" encoding="us-ascii" standalone="no"?><svg xmlns="http://www.w3.org/2000/svg" xmlns:xlink="http://www.w3.org/1999/xlink" contentStyleType="text/css" height="103.9095px" preserveAspectRatio="none" style="width:960px;height:103px;background:#FFFFFF;" version="1.1" viewBox="0 0 960 103" width="960.7754px" zoomAndPan="magnify"><defs/><g><ellipse cx="12.4071" cy="52.3425" fill="#181818" rx="7.7544" ry="7.7544" style="stroke:none;stroke-width:0.7754442649434572;"/><g id="HTML4"><rect fill="#F1F1F1" height="93.878" rx="9.6931" ry="9.6931" style="stroke:#181818;stroke-width:0.3877221324717286;" width="75.2181" x="47.6898" y="5.4281"/><line style="stroke:#181818;stroke-width:0.3877221324717286;" x1="47.6898" x2="122.9079" y1="28.0091" y2="28.0091"/><text fill="#000000" font-family="sans-serif" font-size="10.8562" lengthAdjust="spacing" textLength="34.895" x="67.8514" y="21.7465">HTML4</text><text fill="#000000" font-family="sans-serif" font-size="9.3053" lengthAdjust="spacing" textLength="44.2003" x="51.567" y="42.5502">FrontPage</text><text fill="#000000" font-family="sans-serif" font-size="9.3053" lengthAdjust="spacing" textLength="59.7092" x="51.567" y="55.2587">Dreamweaver</text><text fill="#000000" font-family="sans-serif" font-size="9.3053" lengthAdjust="spacing" textLength="24.0388" x="51.567" y="67.9672">Flash</text><text fill="#000000" font-family="sans-serif" font-size="9.3053" lengthAdjust="spacing" textLength="37.2213" x="51.567" y="80.6757">&#34013;&#33394;&#29702;&#24819;</text><text fill="#000000" font-family="sans-serif" font-size="9.3053" lengthAdjust="spacing" textLength="37.2213" x="51.567" y="93.3842">&#38378;&#23458;&#32852;&#30431;</text></g><g id="XHTML"><rect fill="#F1F1F1" height="68.461" rx="9.6931" ry="9.6931" style="stroke:#181818;stroke-width:0.3877221324717286;" width="120.9693" x="150.4362" y="18.2229"/><line style="stroke:#181818;stroke-width:0.3877221324717286;" x1="150.4362" x2="271.4055" y1="40.804" y2="40.804"/><text fill="#000000" font-family="sans-serif" font-size="10.8562" lengthAdjust="spacing" textLength="34.895" x="193.4733" y="34.5413">XHTML</text><text fill="#000000" font-family="sans-serif" font-size="9.3053" lengthAdjust="spacing" textLength="43.4249" x="154.3134" y="55.3451">Eric Meyer</text><text fill="#000000" font-family="sans-serif" font-size="9.3053" lengthAdjust="spacing" textLength="75.2181" x="154.3134" y="68.0536">&#12298;CSS&#31109;&#24847;&#33457;&#22253;&#12299;</text><text fill="#000000" font-family="sans-serif" font-size="9.3053" lengthAdjust="spacing" textLength="105.4604" x="154.3134" y="80.7621">&#12298;Don't Make Me Think&#12299;</text></g><g id="HTML5"><rect fill="#F1F1F1" height="43.044" rx="9.6931" ry="9.6931" style="stroke:#181818;stroke-width:0.3877221324717286;" width="50.4039" x="298.9338" y="30.63"/><line style="stroke:#181818;stroke-width:0.3877221324717286;" x1="298.9338" x2="349.3376" y1="53.2111" y2="53.2111"/><text fill="#000000" font-family="sans-serif" font-size="10.8562" lengthAdjust="spacing" textLength="34.895" x="306.6882" y="46.9485">HTML5</text><text fill="#000000" font-family="sans-serif" font-size="9.3053" lengthAdjust="spacing" textLength="24.8142" x="302.811" y="67.7522">CSS3</text></g><g id="Ajax"><rect fill="#F1F1F1" height="93.878" rx="9.6931" ry="9.6931" style="stroke:#181818;stroke-width:0.3877221324717286;" width="134.1519" x="376.4782" y="5.4281"/><line style="stroke:#181818;stroke-width:0.3877221324717286;" x1="376.4782" x2="510.63" y1="28.0091" y2="28.0091"/><text fill="#000000" font-family="sans-serif" font-size="10.8562" lengthAdjust="spacing" textLength="20.1616" x="433.4733" y="21.7465">Ajax</text><text fill="#000000" font-family="sans-serif" font-size="9.3053" lengthAdjust="spacing" textLength="34.895" x="380.3554" y="42.5502">Web 2.0</text><text fill="#000000" font-family="sans-serif" font-size="9.3053" lengthAdjust="spacing" textLength="27.1405" x="380.3554" y="55.2587">jQuery</text><text fill="#000000" font-family="sans-serif" font-size="9.3053" lengthAdjust="spacing" textLength="118.643" x="380.3554" y="67.9672">Prototype and Scriptaculous</text><text fill="#000000" font-family="sans-serif" font-size="9.3053" lengthAdjust="spacing" textLength="75.9935" x="380.3554" y="80.6757">mootools and YUI</text><text fill="#000000" font-family="sans-serif" font-size="9.3053" lengthAdjust="spacing" textLength="112.4394" x="380.3554" y="93.3842">JavaScript: The good parts</text></g><g id="SPA"><rect fill="#F1F1F1" height="81.1695" rx="9.6931" ry="9.6931" style="stroke:#181818;stroke-width:0.3877221324717286;" width="109.3376" x="537.7706" y="11.6317"/><line style="stroke:#181818;stroke-width:0.3877221324717286;" x1="537.7706" x2="647.1082" y1="34.2127" y2="34.2127"/><text fill="#000000" font-family="sans-serif" font-size="10.8562" lengthAdjust="spacing" textLength="20.937" x="581.9709" y="27.9501">SPA</text><text fill="#000000" font-family="sans-serif" font-size="9.3053" lengthAdjust="spacing" textLength="77.5444" x="541.6478" y="48.7538">Web Components</text><text fill="#000000" font-family="sans-serif" font-size="9.3053" lengthAdjust="spacing" textLength="51.9548" x="541.6478" y="61.4623">backbone.js</text><text fill="#000000" font-family="sans-serif" font-size="9.3053" lengthAdjust="spacing" textLength="32.5687" x="541.6478" y="74.1708">Angular</text><text fill="#000000" font-family="sans-serif" font-size="9.3053" lengthAdjust="spacing" textLength="93.8288" x="541.6478" y="86.8793">Node.js and Webpack</text></g><g id="Angular"><rect fill="#F1F1F1" height="43.044" rx="9.6931" ry="9.6931" style="stroke:#181818;stroke-width:0.3877221324717286;" width="74.4426" x="674.6365" y="30.63"/><line style="stroke:#181818;stroke-width:0.3877221324717286;" x1="674.6365" x2="749.0792" y1="53.2111" y2="53.2111"/><text fill="#000000" font-family="sans-serif" font-size="10.8562" lengthAdjust="spacing" textLength="37.9968" x="692.8595" y="46.9485">Angular</text><text fill="#000000" font-family="sans-serif" font-size="9.3053" lengthAdjust="spacing" textLength="58.9338" x="678.5137" y="67.7522">Google Gmail</text></g><g id="React"><rect fill="#F1F1F1" height="43.044" rx="9.6931" ry="9.6931" style="stroke:#181818;stroke-width:0.3877221324717286;" width="54.2811" x="776.2197" y="30.63"/><line style="stroke:#181818;stroke-width:0.3877221324717286;" x1="776.2197" x2="830.5008" y1="53.2111" y2="53.2111"/><text fill="#000000" font-family="sans-serif" font-size="10.8562" lengthAdjust="spacing" textLength="28.6914" x="789.0145" y="46.9485">React</text><text fill="#000000" font-family="sans-serif" font-size="9.3053" lengthAdjust="spacing" textLength="38.7722" x="780.0969" y="67.7522">facebook</text></g><g id="Vue"><rect fill="#F1F1F1" height="55.7525" rx="9.6931" ry="9.6931" style="stroke:#181818;stroke-width:0.3877221324717286;" width="55.0565" x="858.0291" y="24.4265"/><line style="stroke:#181818;stroke-width:0.3877221324717286;" x1="858.0291" x2="913.0856" y1="47.0075" y2="47.0075"/><text fill="#000000" font-family="sans-serif" font-size="10.8562" lengthAdjust="spacing" textLength="19.3861" x="875.8643" y="40.7449">Vue</text><text fill="#000000" font-family="sans-serif" font-size="9.3053" lengthAdjust="spacing" textLength="39.5477" x="861.9063" y="61.5486">Evan You</text><text fill="#000000" font-family="sans-serif" font-size="9.3053" lengthAdjust="spacing" textLength="15.5089" x="861.9063" y="74.2571">Vite</text></g><ellipse cx="948.3683" cy="52.3425" fill="none" rx="7.7544" ry="7.7544" style="stroke:#181818;stroke-width:0.7754442649434572;"/><ellipse cx="948.7561" cy="52.7302" fill="#181818" rx="4.6527" ry="4.6527" style="stroke:none;stroke-width:0.7754442649434572;"/><!--link *start* to HTML4--><g id="link_*start*_HTML4"><path d="M20.3787,52.3425 C28.0788,52.3425 35.7868,52.3425 43.4869,52.3425 " fill="none" id="*start*-to-HTML4" style="stroke:#181818;stroke-width:0.7754442649434572;"/><polygon fill="#181818" points="47.5115,52.3425,40.5325,49.2407,43.6342,52.3425,40.5325,55.4443,47.5115,52.3425" style="stroke:#181818;stroke-width:0.7754442649434572;"/></g><!--link HTML4 to XHTML--><g id="link_HTML4_XHTML"><path d="M123.0863,52.3425 C130.7787,52.3425 138.4711,52.3425 146.1635,52.3425 " fill="none" id="HTML4-to-XHTML" style="stroke:#181818;stroke-width:0.7754442649434572;"/><polygon fill="#181818" points="150.188,52.3425,143.209,49.2407,146.3108,52.3425,143.209,55.4443,150.188,52.3425" style="stroke:#181818;stroke-width:0.7754442649434572;"/></g><!--link XHTML to HTML5--><g id="link_XHTML_HTML5"><path d="M271.5063,52.3425 C279.2685,52.3425 287.0307,52.3425 294.7929,52.3425 " fill="none" id="XHTML-to-HTML5" style="stroke:#181818;stroke-width:0.7754442649434572;"/><polygon fill="#181818" points="298.8485,52.3425,291.8695,49.2407,294.9712,52.3425,291.8695,55.4443,298.8485,52.3425" style="stroke:#181818;stroke-width:0.7754442649434572;"/></g><!--link HTML5 to Ajax--><g id="link_HTML5_Ajax"><path d="M349.5625,52.3425 C357.1696,52.3425 364.7767,52.3425 372.3838,52.3425 " fill="none" id="HTML5-to-Ajax" style="stroke:#181818;stroke-width:0.7754442649434572;"/><polygon fill="#181818" points="376.3619,52.3425,369.3829,49.2407,372.4847,52.3425,369.3829,55.4443,376.3619,52.3425" style="stroke:#181818;stroke-width:0.7754442649434572;"/></g><!--link Ajax to SPA--><g id="link_Ajax_SPA"><path d="M510.7231,52.3425 C518.338,52.3425 525.9451,52.3425 533.5599,52.3425 " fill="none" id="Ajax-to-SPA" style="stroke:#181818;stroke-width:0.7754442649434572;"/><polygon fill="#181818" points="537.538,52.3425,530.559,49.2407,533.6607,52.3425,530.559,55.4443,537.538,52.3425" style="stroke:#181818;stroke-width:0.7754442649434572;"/></g><!--link SPA to Angular--><g id="link_SPA_Angular"><path d="M647.2478,52.3425 C654.9868,52.3425 662.7257,52.3425 670.4646,52.3425 " fill="none" id="SPA-to-Angular" style="stroke:#181818;stroke-width:0.7754442649434572;"/><polygon fill="#181818" points="674.5047,52.3425,667.5257,49.2407,670.6275,52.3425,667.5257,55.4443,674.5047,52.3425" style="stroke:#181818;stroke-width:0.7754442649434572;"/></g><!--link Angular to React--><g id="link_Angular_React"><path d="M749.3893,52.3425 C756.9887,52.3425 764.588,52.3425 772.1874,52.3425 " fill="none" id="Angular-to-React" style="stroke:#181818;stroke-width:0.7754442649434572;"/><polygon fill="#181818" points="776.1654,52.3425,769.1864,49.2407,772.2882,52.3425,769.1864,55.4443,776.1654,52.3425" style="stroke:#181818;stroke-width:0.7754442649434572;"/></g><!--link React to Vue--><g id="link_React_Vue"><path d="M830.6559,52.3425 C838.3871,52.3425 846.1183,52.3425 853.8494,52.3425 " fill="none" id="React-to-Vue" style="stroke:#181818;stroke-width:0.7754442649434572;"/><polygon fill="#181818" points="857.8895,52.3425,850.9105,49.2407,854.0123,52.3425,850.9105,55.4443,857.8895,52.3425" style="stroke:#181818;stroke-width:0.7754442649434572;"/></g><!--link Vue to *end*--><g id="link_Vue_*end*"><path d="M913.2795,52.3425 C920.9874,52.3425 928.6876,52.3425 936.3877,52.3425 " fill="none" id="Vue-to-*end*" style="stroke:#181818;stroke-width:0.7754442649434572;"/><polygon fill="#181818" points="940.42,52.3425,933.441,49.2407,936.5428,52.3425,933.441,55.4443,940.42,52.3425" style="stroke:#181818;stroke-width:0.7754442649434572;"/></g><!--SRC=[JLBBIWCn5DtdA-vE41Jn1Sv2AArFh5IhrI8kRgUndSxZ3fbCjJl51rWN2WekH0GNBWG5zPDARVqBayoCkCXDphddvYIvYMpqECpDJi2XKvTDjZUw3sFpiBnLN9jc9cgugrVCn2mxOx8p6kPQUCHqqA1SoZ4r31yqOWy5IsTDRNAq9JDHmqhCcHfwgOnPOcZ1eg10bh31Cw8WEFg77DjS_6ayZ9eP6Du-3Yy_1pSNtwTV6VTp_zf_VnwUt0qUdfAZMx0W71kAlAEsIPdUSJTVBWzUph_FheVTZ_x3M-_uwb-oGC68X2AwNDN1LjC9N2qmTxT0bKwPcrkmmsimEJwHejP6p4Kd1IL1acGdv8117SgsS4A9TknH7AKAdvI2lCW8gjihARsARKpabhBcq22gGuX2Hlg94yyy-I45FCYu6jfkJH7ZhPJ8kc30EjLrnlYewb29i_POi4JKK9zXoKV7ItfamG7Ql4RawZQfzsjZ05MA4rHn96U_]--></g></svg>