<?xml version="1.0" encoding="us-ascii" standalone="no"?><svg xmlns="http://www.w3.org/2000/svg" xmlns:xlink="http://www.w3.org/1999/xlink" contentStyleType="text/css" height="134px" preserveAspectRatio="none" style="width:1270px;height:134px;background:#FFFFFF;" version="1.1" viewBox="0 0 1270 134" width="1270px" zoomAndPan="magnify"><defs/><g><ellipse cx="16" cy="67.5" fill="#181818" rx="10" ry="10" style="stroke:none;stroke-width:1.0;"/><g id="HTML4"><rect fill="#F1F1F1" height="121.0635" rx="12.5" ry="12.5" style="stroke:#181818;stroke-width:0.5;" width="97" x="61.5" y="7"/><line style="stroke:#181818;stroke-width:0.5;" x1="61.5" x2="158.5" y1="36.1201" y2="36.1201"/><text fill="#000000" font-family="sans-serif" font-size="14" lengthAdjust="spacing" textLength="45" x="87.5" y="28.0439">HTML4</text><text fill="#000000" font-family="sans-serif" font-size="12" lengthAdjust="spacing" textLength="57" x="66.5" y="54.8721">FrontPage</text><text fill="#000000" font-family="sans-serif" font-size="12" lengthAdjust="spacing" textLength="77" x="66.5" y="71.2607">Dreamweaver</text><text fill="#000000" font-family="sans-serif" font-size="12" lengthAdjust="spacing" textLength="31" x="66.5" y="87.6494">Flash</text><text fill="#000000" font-family="sans-serif" font-size="12" lengthAdjust="spacing" textLength="48" x="66.5" y="104.0381">&#34013;&#33394;&#29702;&#24819;</text><text fill="#000000" font-family="sans-serif" font-size="12" lengthAdjust="spacing" textLength="48" x="66.5" y="120.4268">&#38378;&#23458;&#32852;&#30431;</text></g><g id="XHTML"><rect fill="#F1F1F1" height="88.2861" rx="12.5" ry="12.5" style="stroke:#181818;stroke-width:0.5;" width="156" x="194" y="23.5"/><line style="stroke:#181818;stroke-width:0.5;" x1="194" x2="350" y1="52.6201" y2="52.6201"/><text fill="#000000" font-family="sans-serif" font-size="14" lengthAdjust="spacing" textLength="45" x="249.5" y="44.5439">XHTML</text><text fill="#000000" font-family="sans-serif" font-size="12" lengthAdjust="spacing" textLength="56" x="199" y="71.3721">Eric Meyer</text><text fill="#000000" font-family="sans-serif" font-size="12" lengthAdjust="spacing" textLength="97" x="199" y="87.7607">&#12298;CSS&#31109;&#24847;&#33457;&#22253;&#12299;</text><text fill="#000000" font-family="sans-serif" font-size="12" lengthAdjust="spacing" textLength="136" x="199" y="104.1494">&#12298;Don't Make Me Think&#12299;</text></g><g id="HTML5"><rect fill="#F1F1F1" height="55.5088" rx="12.5" ry="12.5" style="stroke:#181818;stroke-width:0.5;" width="65" x="385.5" y="39.5"/><line style="stroke:#181818;stroke-width:0.5;" x1="385.5" x2="450.5" y1="68.6201" y2="68.6201"/><text fill="#000000" font-family="sans-serif" font-size="14" lengthAdjust="spacing" textLength="45" x="395.5" y="60.5439">HTML5</text><text fill="#000000" font-family="sans-serif" font-size="12" lengthAdjust="spacing" textLength="32" x="390.5" y="87.3721">CSS3</text></g><g id="Ajax"><rect fill="#F1F1F1" height="121.0635" rx="12.5" ry="12.5" style="stroke:#181818;stroke-width:0.5;" width="173" x="485.5" y="7"/><line style="stroke:#181818;stroke-width:0.5;" x1="485.5" x2="658.5" y1="36.1201" y2="36.1201"/><text fill="#000000" font-family="sans-serif" font-size="14" lengthAdjust="spacing" textLength="26" x="559" y="28.0439">Ajax</text><text fill="#000000" font-family="sans-serif" font-size="12" lengthAdjust="spacing" textLength="45" x="490.5" y="54.8721">Web 2.0</text><text fill="#000000" font-family="sans-serif" font-size="12" lengthAdjust="spacing" textLength="35" x="490.5" y="71.2607">jQuery</text><text fill="#000000" font-family="sans-serif" font-size="12" lengthAdjust="spacing" textLength="153" x="490.5" y="87.6494">Prototype and Scriptaculous</text><text fill="#000000" font-family="sans-serif" font-size="12" lengthAdjust="spacing" textLength="98" x="490.5" y="104.0381">mootools and YUI</text><text fill="#000000" font-family="sans-serif" font-size="12" lengthAdjust="spacing" textLength="145" x="490.5" y="120.4268">JavaScript: The good parts</text></g><g id="SPA"><rect fill="#F1F1F1" height="104.6748" rx="12.5" ry="12.5" style="stroke:#181818;stroke-width:0.5;" width="141" x="693.5" y="15"/><line style="stroke:#181818;stroke-width:0.5;" x1="693.5" x2="834.5" y1="44.1201" y2="44.1201"/><text fill="#000000" font-family="sans-serif" font-size="14" lengthAdjust="spacing" textLength="27" x="750.5" y="36.0439">SPA</text><text fill="#000000" font-family="sans-serif" font-size="12" lengthAdjust="spacing" textLength="100" x="698.5" y="62.8721">Web Components</text><text fill="#000000" font-family="sans-serif" font-size="12" lengthAdjust="spacing" textLength="67" x="698.5" y="79.2607">backbone.js</text><text fill="#000000" font-family="sans-serif" font-size="12" lengthAdjust="spacing" textLength="42" x="698.5" y="95.6494">Angular</text><text fill="#000000" font-family="sans-serif" font-size="12" lengthAdjust="spacing" textLength="121" x="698.5" y="112.0381">Node.js and Webpack</text></g><g id="Angular"><rect fill="#F1F1F1" height="55.5088" rx="12.5" ry="12.5" style="stroke:#181818;stroke-width:0.5;" width="96" x="870" y="39.5"/><line style="stroke:#181818;stroke-width:0.5;" x1="870" x2="966" y1="68.6201" y2="68.6201"/><text fill="#000000" font-family="sans-serif" font-size="14" lengthAdjust="spacing" textLength="49" x="893.5" y="60.5439">Angular</text><text fill="#000000" font-family="sans-serif" font-size="12" lengthAdjust="spacing" textLength="76" x="875" y="87.3721">Google Gmail</text></g><g id="React"><rect fill="#F1F1F1" height="55.5088" rx="12.5" ry="12.5" style="stroke:#181818;stroke-width:0.5;" width="70" x="1001" y="39.5"/><line style="stroke:#181818;stroke-width:0.5;" x1="1001" x2="1071" y1="68.6201" y2="68.6201"/><text fill="#000000" font-family="sans-serif" font-size="14" lengthAdjust="spacing" textLength="37" x="1017.5" y="60.5439">React</text><text fill="#000000" font-family="sans-serif" font-size="12" lengthAdjust="spacing" textLength="50" x="1006" y="87.3721">facebook</text></g><g id="VUE"><rect fill="#F1F1F1" height="71.8975" rx="12.5" ry="12.5" style="stroke:#181818;stroke-width:0.5;" width="71" x="1106.5" y="31.5"/><line style="stroke:#181818;stroke-width:0.5;" x1="1106.5" x2="1177.5" y1="60.6201" y2="60.6201"/><text fill="#000000" font-family="sans-serif" font-size="14" lengthAdjust="spacing" textLength="27" x="1128.5" y="52.5439">VUE</text><text fill="#000000" font-family="sans-serif" font-size="12" lengthAdjust="spacing" textLength="51" x="1111.5" y="79.3721">Evan You</text><text fill="#000000" font-family="sans-serif" font-size="12" lengthAdjust="spacing" textLength="20" x="1111.5" y="95.7607">Vite</text></g><g id=""><rect fill="#F1F1F1" height="50" rx="12.5" ry="12.5" style="stroke:#181818;stroke-width:0.5;" width="50" x="1213" y="42.5"/><line style="stroke:#181818;stroke-width:0.5;" x1="1213" x2="1263" y1="71.6201" y2="71.6201"/><text fill="#000000" font-family="sans-serif" font-size="14" lengthAdjust="spacing" textLength="4" x="1236" y="63.5439">&#160;</text></g><!--link *start* to HTML4--><g id="link_*start*_HTML4"><path d="M26.28,67.5 C36.21,67.5 46.15,67.5 56.08,67.5 " fill="none" id="*start*-to-HTML4" style="stroke:#181818;stroke-width:1.0;"/><polygon fill="#181818" points="61.27,67.5,52.27,63.5,56.27,67.5,52.27,71.5,61.27,67.5" style="stroke:#181818;stroke-width:1.0;"/></g><!--link HTML4 to XHTML--><g id="link_HTML4_XHTML"><path d="M158.73,67.5 C168.65,67.5 178.57,67.5 188.49,67.5 " fill="none" id="HTML4-to-XHTML" style="stroke:#181818;stroke-width:1.0;"/><polygon fill="#181818" points="193.68,67.5,184.68,63.5,188.68,67.5,184.68,71.5,193.68,67.5" style="stroke:#181818;stroke-width:1.0;"/></g><!--link XHTML to HTML5--><g id="link_XHTML_HTML5"><path d="M350.13,67.5 C360.14,67.5 370.15,67.5 380.16,67.5 " fill="none" id="XHTML-to-HTML5" style="stroke:#181818;stroke-width:1.0;"/><polygon fill="#181818" points="385.39,67.5,376.39,63.5,380.39,67.5,376.39,71.5,385.39,67.5" style="stroke:#181818;stroke-width:1.0;"/></g><!--link HTML5 to Ajax--><g id="link_HTML5_Ajax"><path d="M450.79,67.5 C460.6,67.5 470.41,67.5 480.22,67.5 " fill="none" id="HTML5-to-Ajax" style="stroke:#181818;stroke-width:1.0;"/><polygon fill="#181818" points="485.35,67.5,476.35,63.5,480.35,67.5,476.35,71.5,485.35,67.5" style="stroke:#181818;stroke-width:1.0;"/></g><!--link Ajax to SPA--><g id="link_Ajax_SPA"><path d="M658.62,67.5 C668.44,67.5 678.25,67.5 688.07,67.5 " fill="none" id="Ajax-to-SPA" style="stroke:#181818;stroke-width:1.0;"/><polygon fill="#181818" points="693.2,67.5,684.2,63.5,688.2,67.5,684.2,71.5,693.2,67.5" style="stroke:#181818;stroke-width:1.0;"/></g><!--link SPA to Angular--><g id="link_SPA_Angular"><path d="M834.68,67.5 C844.66,67.5 854.64,67.5 864.62,67.5 " fill="none" id="SPA-to-Angular" style="stroke:#181818;stroke-width:1.0;"/><polygon fill="#181818" points="869.83,67.5,860.83,63.5,864.83,67.5,860.83,71.5,869.83,67.5" style="stroke:#181818;stroke-width:1.0;"/></g><!--link Angular to React--><g id="link_Angular_React"><path d="M966.4,67.5 C976.2,67.5 986,67.5 995.8,67.5 " fill="none" id="Angular-to-React" style="stroke:#181818;stroke-width:1.0;"/><polygon fill="#181818" points="1000.93,67.5,991.93,63.5,995.93,67.5,991.93,71.5,1000.93,67.5" style="stroke:#181818;stroke-width:1.0;"/></g><!--link React to VUE--><g id="link_React_VUE"><path d="M1071.2,67.5 C1081.17,67.5 1091.14,67.5 1101.11,67.5 " fill="none" id="React-to-VUE" style="stroke:#181818;stroke-width:1.0;"/><polygon fill="#181818" points="1106.32,67.5,1097.32,63.5,1101.32,67.5,1097.32,71.5,1106.32,67.5" style="stroke:#181818;stroke-width:1.0;"/></g><!--link VUE to --><g id="link_VUE_"><path d="M1177.62,67.5 C1187.53,67.5 1197.44,67.5 1207.35,67.5 " fill="none" id="VUE-to-" style="stroke:#181818;stroke-width:1.0;"/><polygon fill="#181818" points="1212.53,67.5,1203.53,63.5,1207.53,67.5,1203.53,71.5,1212.53,67.5" style="stroke:#181818;stroke-width:1.0;"/></g><!--SRC=[JP5DIyD048Rl-olc9WW6KNl9GIYsLiLAjHzQnCCaNTkqQIPiasfl5J_0Ub1Gy514yE11K51_Kkc7_yBTJI8UThBlC-_iP7SEvuzWOHKsIldj5QQZaWTgntHCiYcTJIcPRk8fKq69OY7DvDBSguSk2XP_5ThZQ0TCHoKhvIoJIsqDms1HGnFM1Nb10Uiy0Hd1iNt2iSl5dyV5JYCHi_kdsVNNzEvgSlwTi9_7j_77o-piOJfyZdxTXAnmRCZpdZmc9gF-OArOdBvUJYvkPuFFyV1zrB_vbyoGDnT07bjSra6fuNWjPT1tDq6MBkkRcx3FBLWo5cFLt0svwCMY82YWeETpGAy6HLiuVe1sw5BOYHrjaWvoEzfGBM_6U0kx6DbDsPf3dQW6FegWevuuwhb6RPyyxYNCGhjbIM0qOv1CGOiTggcCxYEhVMbEncD2ZgZkSiYrqN6Z6PbmZ3QtY5fgJFBzkkX1bS98LPo0iry0]--></g></svg>