<?xml version="1.0" encoding="us-ascii" standalone="no"?><svg xmlns="http://www.w3.org/2000/svg" xmlns:xlink="http://www.w3.org/1999/xlink" contentStyleType="text/css" height="81.1793px" preserveAspectRatio="none" style="width:750px;height:81px;background:#FFFFFF;" version="1.1" viewBox="0 0 750 81" width="750.6058px" zoomAndPan="magnify"><defs/><g><ellipse cx="9.6931" cy="40.8926" fill="#181818" rx="6.0582" ry="6.0582" style="stroke:none;stroke-width:0.6058158319870759;"/><g id="HTML4"><rect fill="#F1F1F1" height="73.3422" rx="7.5727" ry="7.5727" style="stroke:#181818;stroke-width:0.30290791599353795;" width="58.7641" x="37.2577" y="4.2407"/><line style="stroke:#181818;stroke-width:0.30290791599353795;" x1="37.2577" x2="96.0218" y1="21.8821" y2="21.8821"/><text fill="#000000" font-family="sans-serif" font-size="8.4814" lengthAdjust="spacing" textLength="27.2617" x="53.0089" y="16.9895">HTML4</text><text fill="#000000" font-family="sans-serif" font-size="7.2698" lengthAdjust="spacing" textLength="34.5315" x="40.2868" y="33.2424">FrontPage</text><text fill="#000000" font-family="sans-serif" font-size="7.2698" lengthAdjust="spacing" textLength="46.6478" x="40.2868" y="43.1709">Dreamweaver</text><text fill="#000000" font-family="sans-serif" font-size="7.2698" lengthAdjust="spacing" textLength="18.7803" x="40.2868" y="53.0994">Flash</text><text fill="#000000" font-family="sans-serif" font-size="7.2698" lengthAdjust="spacing" textLength="29.0792" x="40.2868" y="63.0279">&#34013;&#33394;&#29702;&#24819;</text><text fill="#000000" font-family="sans-serif" font-size="7.2698" lengthAdjust="spacing" textLength="29.0792" x="40.2868" y="72.9564">&#38378;&#23458;&#32852;&#30431;</text></g><g id="XHTML"><rect fill="#F1F1F1" height="53.4851" rx="7.5727" ry="7.5727" style="stroke:#181818;stroke-width:0.30290791599353795;" width="94.5073" x="117.5283" y="14.2367"/><line style="stroke:#181818;stroke-width:0.30290791599353795;" x1="117.5283" x2="212.0355" y1="31.8781" y2="31.8781"/><text fill="#000000" font-family="sans-serif" font-size="8.4814" lengthAdjust="spacing" textLength="27.2617" x="151.1511" y="26.9854">XHTML</text><text fill="#000000" font-family="sans-serif" font-size="7.2698" lengthAdjust="spacing" textLength="33.9257" x="120.5574" y="43.2383">Eric Meyer</text><text fill="#000000" font-family="sans-serif" font-size="7.2698" lengthAdjust="spacing" textLength="58.7641" x="120.5574" y="53.1668">&#12298;CSS&#31109;&#24847;&#33457;&#22253;&#12299;</text><text fill="#000000" font-family="sans-serif" font-size="7.2698" lengthAdjust="spacing" textLength="82.391" x="120.5574" y="63.0954">&#12298;Don't Make Me Think&#12299;</text></g><g id="HTML5"><rect fill="#F1F1F1" height="33.6281" rx="7.5727" ry="7.5727" style="stroke:#181818;stroke-width:0.30290791599353795;" width="39.378" x="233.542" y="23.9297"/><line style="stroke:#181818;stroke-width:0.30290791599353795;" x1="233.542" x2="272.92" y1="41.5712" y2="41.5712"/><text fill="#000000" font-family="sans-serif" font-size="8.4814" lengthAdjust="spacing" textLength="27.2617" x="239.6002" y="36.6785">HTML5</text><text fill="#000000" font-family="sans-serif" font-size="7.2698" lengthAdjust="spacing" textLength="19.3861" x="236.5711" y="52.9314">CSS3</text></g><g id="Ajax"><rect fill="#F1F1F1" height="73.3422" rx="7.5727" ry="7.5727" style="stroke:#181818;stroke-width:0.30290791599353795;" width="104.8061" x="294.1236" y="4.2407"/><line style="stroke:#181818;stroke-width:0.30290791599353795;" x1="294.1236" x2="398.9297" y1="21.8821" y2="21.8821"/><text fill="#000000" font-family="sans-serif" font-size="8.4814" lengthAdjust="spacing" textLength="15.7512" x="338.6511" y="16.9895">Ajax</text><text fill="#000000" font-family="sans-serif" font-size="7.2698" lengthAdjust="spacing" textLength="27.2617" x="297.1527" y="33.2424">Web 2.0</text><text fill="#000000" font-family="sans-serif" font-size="7.2698" lengthAdjust="spacing" textLength="21.2036" x="297.1527" y="43.1709">jQuery</text><text fill="#000000" font-family="sans-serif" font-size="7.2698" lengthAdjust="spacing" textLength="92.6898" x="297.1527" y="53.0994">Prototype and Scriptaculous</text><text fill="#000000" font-family="sans-serif" font-size="7.2698" lengthAdjust="spacing" textLength="59.37" x="297.1527" y="63.0279">mootools and YUI</text><text fill="#000000" font-family="sans-serif" font-size="7.2698" lengthAdjust="spacing" textLength="87.8433" x="297.1527" y="72.9564">JavaScript: The good parts</text></g><g id="SPA"><rect fill="#F1F1F1" height="63.4137" rx="7.5727" ry="7.5727" style="stroke:#181818;stroke-width:0.30290791599353795;" width="85.42" x="420.1333" y="9.0872"/><line style="stroke:#181818;stroke-width:0.30290791599353795;" x1="420.1333" x2="505.5533" y1="26.7287" y2="26.7287"/><text fill="#000000" font-family="sans-serif" font-size="8.4814" lengthAdjust="spacing" textLength="16.357" x="454.6648" y="21.836">SPA</text><text fill="#000000" font-family="sans-serif" font-size="7.2698" lengthAdjust="spacing" textLength="60.5816" x="423.1624" y="38.0889">Web Components</text><text fill="#000000" font-family="sans-serif" font-size="7.2698" lengthAdjust="spacing" textLength="40.5897" x="423.1624" y="48.0174">backbone.js</text><text fill="#000000" font-family="sans-serif" font-size="7.2698" lengthAdjust="spacing" textLength="25.4443" x="423.1624" y="57.9459">Angular</text><text fill="#000000" font-family="sans-serif" font-size="7.2698" lengthAdjust="spacing" textLength="73.3037" x="423.1624" y="67.8744">Node.js and Webpack</text></g><g id="Angular"><rect fill="#F1F1F1" height="33.6281" rx="7.5727" ry="7.5727" style="stroke:#181818;stroke-width:0.30290791599353795;" width="58.1583" x="527.0598" y="23.9297"/><line style="stroke:#181818;stroke-width:0.30290791599353795;" x1="527.0598" x2="585.2181" y1="41.5712" y2="41.5712"/><text fill="#000000" font-family="sans-serif" font-size="8.4814" lengthAdjust="spacing" textLength="29.685" x="541.2964" y="36.6785">Angular</text><text fill="#000000" font-family="sans-serif" font-size="7.2698" lengthAdjust="spacing" textLength="46.042" x="530.0889" y="52.9314">Google Gmail</text></g><g id="React"><rect fill="#F1F1F1" height="33.6281" rx="7.5727" ry="7.5727" style="stroke:#181818;stroke-width:0.30290791599353795;" width="42.4071" x="606.4216" y="23.9297"/><line style="stroke:#181818;stroke-width:0.30290791599353795;" x1="606.4216" x2="648.8288" y1="41.5712" y2="41.5712"/><text fill="#000000" font-family="sans-serif" font-size="8.4814" lengthAdjust="spacing" textLength="22.4152" x="616.4176" y="36.6785">React</text><text fill="#000000" font-family="sans-serif" font-size="7.2698" lengthAdjust="spacing" textLength="30.2908" x="609.4507" y="52.9314">facebook</text></g><g id="Vue"><rect fill="#F1F1F1" height="43.5566" rx="7.5727" ry="7.5727" style="stroke:#181818;stroke-width:0.30290791599353795;" width="43.0129" x="670.3352" y="19.0832"/><line style="stroke:#181818;stroke-width:0.30290791599353795;" x1="670.3352" x2="713.3481" y1="36.7246" y2="36.7246"/><text fill="#000000" font-family="sans-serif" font-size="8.4814" lengthAdjust="spacing" textLength="15.1454" x="684.269" y="31.832">Vue</text><text fill="#000000" font-family="sans-serif" font-size="7.2698" lengthAdjust="spacing" textLength="30.8966" x="673.3643" y="48.0849">Evan You</text><text fill="#000000" font-family="sans-serif" font-size="7.2698" lengthAdjust="spacing" textLength="12.1163" x="673.3643" y="58.0134">Vite</text></g><ellipse cx="740.9128" cy="40.8926" fill="none" rx="6.0582" ry="6.0582" style="stroke:#181818;stroke-width:0.6058158319870759;"/><ellipse cx="741.2157" cy="41.1955" fill="#181818" rx="3.6349" ry="3.6349" style="stroke:none;stroke-width:0.6058158319870759;"/><!--link *start* to HTML4--><g id="link_*start*_HTML4"><path d="M15.9208,40.8926 C21.9366,40.8926 27.9584,40.8926 33.9742,40.8926 " fill="none" id="*start*-to-HTML4" style="stroke:#181818;stroke-width:0.6058158319870759;"/><polygon fill="#181818" points="37.1183,40.8926,31.666,38.4693,34.0893,40.8926,31.666,43.3158,37.1183,40.8926" style="stroke:#181818;stroke-width:0.6058158319870759;"/></g><!--link HTML4 to XHTML--><g id="link_HTML4_XHTML"><path d="M96.1611,40.8926 C102.1708,40.8926 108.1805,40.8926 114.1902,40.8926 " fill="none" id="HTML4-to-XHTML" style="stroke:#181818;stroke-width:0.6058158319870759;"/><polygon fill="#181818" points="117.3344,40.8926,111.8821,38.4693,114.3053,40.8926,111.8821,43.3158,117.3344,40.8926" style="stroke:#181818;stroke-width:0.6058158319870759;"/></g><!--link XHTML to HTML5--><g id="link_XHTML_HTML5"><path d="M212.1143,40.8926 C218.1785,40.8926 224.2427,40.8926 230.3069,40.8926 " fill="none" id="XHTML-to-HTML5" style="stroke:#181818;stroke-width:0.6058158319870759;"/><polygon fill="#181818" points="233.4754,40.8926,228.023,38.4693,230.4463,40.8926,228.023,43.3158,233.4754,40.8926" style="stroke:#181818;stroke-width:0.6058158319870759;"/></g><!--link HTML5 to Ajax--><g id="link_HTML5_Ajax"><path d="M273.0957,40.8926 C279.0388,40.8926 284.9818,40.8926 290.9249,40.8926 " fill="none" id="HTML5-to-Ajax" style="stroke:#181818;stroke-width:0.6058158319870759;"/><polygon fill="#181818" points="294.0327,40.8926,288.5804,38.4693,291.0036,40.8926,288.5804,43.3158,294.0327,40.8926" style="stroke:#181818;stroke-width:0.6058158319870759;"/></g><!--link Ajax to SPA--><g id="link_Ajax_SPA"><path d="M399.0024,40.8926 C404.9515,40.8926 410.8946,40.8926 416.8437,40.8926 " fill="none" id="Ajax-to-SPA" style="stroke:#181818;stroke-width:0.6058158319870759;"/><polygon fill="#181818" points="419.9515,40.8926,414.4992,38.4693,416.9225,40.8926,414.4992,43.3158,419.9515,40.8926" style="stroke:#181818;stroke-width:0.6058158319870759;"/></g><!--link SPA to Angular--><g id="link_SPA_Angular"><path d="M505.6624,40.8926 C511.7084,40.8926 517.7544,40.8926 523.8005,40.8926 " fill="none" id="SPA-to-Angular" style="stroke:#181818;stroke-width:0.6058158319870759;"/><polygon fill="#181818" points="526.9568,40.8926,521.5044,38.4693,523.9277,40.8926,521.5044,43.3158,526.9568,40.8926" style="stroke:#181818;stroke-width:0.6058158319870759;"/></g><!--link Angular to React--><g id="link_Angular_React"><path d="M585.4604,40.8926 C591.3974,40.8926 597.3344,40.8926 603.2714,40.8926 " fill="none" id="Angular-to-React" style="stroke:#181818;stroke-width:0.6058158319870759;"/><polygon fill="#181818" points="606.3792,40.8926,600.9269,38.4693,603.3502,40.8926,600.9269,43.3158,606.3792,40.8926" style="stroke:#181818;stroke-width:0.6058158319870759;"/></g><!--link React to Vue--><g id="link_React_Vue"><path d="M648.9499,40.8926 C654.9899,40.8926 661.0299,40.8926 667.0699,40.8926 " fill="none" id="React-to-Vue" style="stroke:#181818;stroke-width:0.6058158319870759;"/><polygon fill="#181818" points="670.2262,40.8926,664.7738,38.4693,667.1971,40.8926,664.7738,43.3158,670.2262,40.8926" style="stroke:#181818;stroke-width:0.6058158319870759;"/></g><!--link Vue to *end*--><g id="link_Vue_*end*"><path d="M713.4996,40.8926 C719.5214,40.8926 725.5372,40.8926 731.5529,40.8926 " fill="none" id="Vue-to-*end*" style="stroke:#181818;stroke-width:0.6058158319870759;"/><polygon fill="#181818" points="734.7032,40.8926,729.2508,38.4693,731.6741,40.8926,729.2508,43.3158,734.7032,40.8926" style="stroke:#181818;stroke-width:0.6058158319870759;"/></g><!--SRC=[JL9DImCn4BtdLynD42n5BS8UX5A_iL9jhHRnCDt6TjljpfBDjlPMyGFKWuA2XoA21m-2WlgJf1_-2vFihdZ89E_Dcxmaay16byD29WrTfoORx63w46OMOQsKtvnd9cguhrVCn2IRCTcCXjac7ZCTD2WMiamDmtlrq4N1ubbJEnnjoKpKi1nofePUAcCM6Lgm8iYJ1QppX5WI7DjTZXqk_ZGk1eq4JEuU9vUVuzkBqUbNmlqyl0xVdoSdz-F1KtHq2vQ5OqEUzzGsCVFTlyeLY-ENyz7PpUJgOpXu- -vV_qikaJSb8OyjhkgWr72ybXQOkrkWIkVCpItOurMOJQLZrDmEkUZ5e218akpv7D2hGT4MZY_H3bqAWrZH9gKWDp22okvwJ6zW1oEvfQmvr8bguAEGWNxYo3D7RPyyxYLS5UrMLH6fPamaNJ1WYsewOtnKjQ_4INiiM2Mggy-msaR7ZNfamH7Ql4hKqcrIxzT13oeKHgZiICv-0G00]--></g></svg>