<?xml version="1.0" encoding="us-ascii" standalone="no"?><svg xmlns="http://www.w3.org/2000/svg" xmlns:xlink="http://www.w3.org/1999/xlink" contentStyleType="text/css" height="150px" preserveAspectRatio="none" style="width:1304px;height:150px;background:#FFFFFF;" version="1.1" viewBox="0 0 1304 150" width="1304px" zoomAndPan="magnify"><defs/><g><ellipse cx="16" cy="75.5" fill="#181818" rx="10" ry="10" style="stroke:none;stroke-width:1.0;"/><g id="HTML4"><rect fill="#F1F1F1" height="121.0635" rx="12.5" ry="12.5" style="stroke:#181818;stroke-width:0.5;" width="97" x="61.5" y="15"/><line style="stroke:#181818;stroke-width:0.5;" x1="61.5" x2="158.5" y1="44.1201" y2="44.1201"/><text fill="#000000" font-family="sans-serif" font-size="14" lengthAdjust="spacing" textLength="45" x="87.5" y="36.0439">HTML4</text><text fill="#000000" font-family="sans-serif" font-size="12" lengthAdjust="spacing" textLength="57" x="66.5" y="62.8721">FrontPage</text><text fill="#000000" font-family="sans-serif" font-size="12" lengthAdjust="spacing" textLength="77" x="66.5" y="79.2607">Dreamweaver</text><text fill="#000000" font-family="sans-serif" font-size="12" lengthAdjust="spacing" textLength="31" x="66.5" y="95.6494">Flash</text><text fill="#000000" font-family="sans-serif" font-size="12" lengthAdjust="spacing" textLength="48" x="66.5" y="112.0381">&#34013;&#33394;&#29702;&#24819;</text><text fill="#000000" font-family="sans-serif" font-size="12" lengthAdjust="spacing" textLength="48" x="66.5" y="128.4268">&#38378;&#23458;&#32852;&#30431;</text></g><g id="XHTML"><rect fill="#F1F1F1" height="88.2861" rx="12.5" ry="12.5" style="stroke:#181818;stroke-width:0.5;" width="156" x="194" y="31.5"/><line style="stroke:#181818;stroke-width:0.5;" x1="194" x2="350" y1="60.6201" y2="60.6201"/><text fill="#000000" font-family="sans-serif" font-size="14" lengthAdjust="spacing" textLength="45" x="249.5" y="52.5439">XHTML</text><text fill="#000000" font-family="sans-serif" font-size="12" lengthAdjust="spacing" textLength="56" x="199" y="79.3721">Eric Meyer</text><text fill="#000000" font-family="sans-serif" font-size="12" lengthAdjust="spacing" textLength="97" x="199" y="95.7607">&#12298;CSS&#31109;&#24847;&#33457;&#22253;&#12299;</text><text fill="#000000" font-family="sans-serif" font-size="12" lengthAdjust="spacing" textLength="136" x="199" y="112.1494">&#12298;Don't Make Me Think&#12299;</text></g><g id="HTML5"><rect fill="#F1F1F1" height="50" rx="12.5" ry="12.5" style="stroke:#181818;stroke-width:0.5;" width="65" x="385.5" y="50.5"/><line style="stroke:#181818;stroke-width:0.5;" x1="385.5" x2="450.5" y1="79.6201" y2="79.6201"/><text fill="#000000" font-family="sans-serif" font-size="14" lengthAdjust="spacing" textLength="45" x="395.5" y="71.5439">HTML5</text></g><g id="Ajax"><rect fill="#F1F1F1" height="137.4521" rx="12.5" ry="12.5" style="stroke:#181818;stroke-width:0.5;" width="173" x="485.5" y="7"/><line style="stroke:#181818;stroke-width:0.5;" x1="485.5" x2="658.5" y1="36.1201" y2="36.1201"/><text fill="#000000" font-family="sans-serif" font-size="14" lengthAdjust="spacing" textLength="26" x="559" y="28.0439">Ajax</text><text fill="#000000" font-family="sans-serif" font-size="12" lengthAdjust="spacing" textLength="45" x="490.5" y="54.8721">Web 2.0</text><text fill="#000000" font-family="sans-serif" font-size="12" lengthAdjust="spacing" textLength="35" x="490.5" y="71.2607">jQuery</text><text fill="#000000" font-family="sans-serif" font-size="12" lengthAdjust="spacing" textLength="153" x="490.5" y="87.6494">Prototype and Scriptaculous</text><text fill="#000000" font-family="sans-serif" font-size="12" lengthAdjust="spacing" textLength="98" x="490.5" y="104.0381">mootools and YUI</text><text fill="#000000" font-family="sans-serif" font-size="12" lengthAdjust="spacing" textLength="145" x="490.5" y="120.4268">JavaScript: The good parts</text><text fill="#000000" font-family="sans-serif" font-size="12" lengthAdjust="spacing" textLength="85" x="490.5" y="136.8154">HTML5 &amp; CSS3</text></g><g id="SPA"><rect fill="#F1F1F1" height="104.6748" rx="12.5" ry="12.5" style="stroke:#181818;stroke-width:0.5;" width="141" x="693.5" y="23"/><line style="stroke:#181818;stroke-width:0.5;" x1="693.5" x2="834.5" y1="52.1201" y2="52.1201"/><text fill="#000000" font-family="sans-serif" font-size="14" lengthAdjust="spacing" textLength="27" x="750.5" y="44.0439">SPA</text><text fill="#000000" font-family="sans-serif" font-size="12" lengthAdjust="spacing" textLength="95" x="698.5" y="70.8721">web components</text><text fill="#000000" font-family="sans-serif" font-size="12" lengthAdjust="spacing" textLength="67" x="698.5" y="87.2607">backbone.js</text><text fill="#000000" font-family="sans-serif" font-size="12" lengthAdjust="spacing" textLength="42" x="698.5" y="103.6494">Angular</text><text fill="#000000" font-family="sans-serif" font-size="12" lengthAdjust="spacing" textLength="121" x="698.5" y="120.0381">Node.js and Webpack</text></g><g id="Angular"><rect fill="#F1F1F1" height="55.5088" rx="12.5" ry="12.5" style="stroke:#181818;stroke-width:0.5;" width="69" x="869.5" y="47.5"/><line style="stroke:#181818;stroke-width:0.5;" x1="869.5" x2="938.5" y1="76.6201" y2="76.6201"/><text fill="#000000" font-family="sans-serif" font-size="14" lengthAdjust="spacing" textLength="49" x="879.5" y="68.5439">Angular</text><text fill="#000000" font-family="sans-serif" font-size="12" lengthAdjust="spacing" textLength="32" x="874.5" y="95.3721">React</text></g><g id="React"><rect fill="#F1F1F1" height="55.5088" rx="12.5" ry="12.5" style="stroke:#181818;stroke-width:0.5;" width="70" x="974" y="47.5"/><line style="stroke:#181818;stroke-width:0.5;" x1="974" x2="1044" y1="76.6201" y2="76.6201"/><text fill="#000000" font-family="sans-serif" font-size="14" lengthAdjust="spacing" textLength="37" x="990.5" y="68.5439">React</text><text fill="#000000" font-family="sans-serif" font-size="12" lengthAdjust="spacing" textLength="50" x="979" y="95.3721">facebook</text></g><g id="VUE"><rect fill="#F1F1F1" height="71.8975" rx="12.5" ry="12.5" style="stroke:#181818;stroke-width:0.5;" width="71" x="1079.5" y="39.5"/><line style="stroke:#181818;stroke-width:0.5;" x1="1079.5" x2="1150.5" y1="68.6201" y2="68.6201"/><text fill="#000000" font-family="sans-serif" font-size="14" lengthAdjust="spacing" textLength="27" x="1101.5" y="60.5439">VUE</text><text fill="#000000" font-family="sans-serif" font-size="12" lengthAdjust="spacing" textLength="51" x="1084.5" y="87.3721">Evan You</text><text fill="#000000" font-family="sans-serif" font-size="12" lengthAdjust="spacing" textLength="20" x="1084.5" y="103.7607">Vite</text></g><g id="HTML"><rect fill="#F1F1F1" height="50" rx="12.5" ry="12.5" style="stroke:#181818;stroke-width:0.5;" width="57" x="1185.5" y="50.5"/><line style="stroke:#181818;stroke-width:0.5;" x1="1185.5" x2="1242.5" y1="79.6201" y2="79.6201"/><text fill="#000000" font-family="sans-serif" font-size="14" lengthAdjust="spacing" textLength="37" x="1195.5" y="71.5439">HTML</text></g><ellipse cx="1288" cy="75.5" fill="none" rx="10" ry="10" style="stroke:#181818;stroke-width:1.0;"/><ellipse cx="1288.5" cy="76" fill="#181818" rx="6" ry="6" style="stroke:none;stroke-width:1.0;"/><!--link *start* to HTML4--><g id="link_*start*_HTML4"><path d="M26.28,75.5 C36.21,75.5 46.15,75.5 56.08,75.5 " fill="none" id="*start*-to-HTML4" style="stroke:#181818;stroke-width:1.0;"/><polygon fill="#181818" points="61.27,75.5,52.27,71.5,56.27,75.5,52.27,79.5,61.27,75.5" style="stroke:#181818;stroke-width:1.0;"/></g><!--link HTML4 to XHTML--><g id="link_HTML4_XHTML"><path d="M158.73,75.5 C168.65,75.5 178.57,75.5 188.49,75.5 " fill="none" id="HTML4-to-XHTML" style="stroke:#181818;stroke-width:1.0;"/><polygon fill="#181818" points="193.68,75.5,184.68,71.5,188.68,75.5,184.68,79.5,193.68,75.5" style="stroke:#181818;stroke-width:1.0;"/></g><!--link XHTML to HTML5--><g id="link_XHTML_HTML5"><path d="M350.13,75.5 C360.14,75.5 370.15,75.5 380.16,75.5 " fill="none" id="XHTML-to-HTML5" style="stroke:#181818;stroke-width:1.0;"/><polygon fill="#181818" points="385.39,75.5,376.39,71.5,380.39,75.5,376.39,79.5,385.39,75.5" style="stroke:#181818;stroke-width:1.0;"/></g><!--link HTML5 to Ajax--><g id="link_HTML5_Ajax"><path d="M450.79,75.5 C460.6,75.5 470.41,75.5 480.22,75.5 " fill="none" id="HTML5-to-Ajax" style="stroke:#181818;stroke-width:1.0;"/><polygon fill="#181818" points="485.35,75.5,476.35,71.5,480.35,75.5,476.35,79.5,485.35,75.5" style="stroke:#181818;stroke-width:1.0;"/></g><!--link Ajax to SPA--><g id="link_Ajax_SPA"><path d="M658.62,75.5 C668.44,75.5 678.25,75.5 688.07,75.5 " fill="none" id="Ajax-to-SPA" style="stroke:#181818;stroke-width:1.0;"/><polygon fill="#181818" points="693.2,75.5,684.2,71.5,688.2,75.5,684.2,79.5,693.2,75.5" style="stroke:#181818;stroke-width:1.0;"/></g><!--link SPA to Angular--><g id="link_SPA_Angular"><path d="M834.55,75.5 C844.4,75.5 854.26,75.5 864.12,75.5 " fill="none" id="SPA-to-Angular" style="stroke:#181818;stroke-width:1.0;"/><polygon fill="#181818" points="869.27,75.5,860.27,71.5,864.27,75.5,860.27,79.5,869.27,75.5" style="stroke:#181818;stroke-width:1.0;"/></g><!--link Angular to React--><g id="link_Angular_React"><path d="M938.86,75.5 C948.82,75.5 958.77,75.5 968.73,75.5 " fill="none" id="Angular-to-React" style="stroke:#181818;stroke-width:1.0;"/><polygon fill="#181818" points="973.93,75.5,964.93,71.5,968.93,75.5,964.93,79.5,973.93,75.5" style="stroke:#181818;stroke-width:1.0;"/></g><!--link React to VUE--><g id="link_React_VUE"><path d="M1044.2,75.5 C1054.17,75.5 1064.14,75.5 1074.11,75.5 " fill="none" id="React-to-VUE" style="stroke:#181818;stroke-width:1.0;"/><polygon fill="#181818" points="1079.32,75.5,1070.32,71.5,1074.32,75.5,1070.32,79.5,1079.32,75.5" style="stroke:#181818;stroke-width:1.0;"/></g><!--link VUE to HTML--><g id="link_VUE_HTML"><path d="M1150.58,75.5 C1160.42,75.5 1170.27,75.5 1180.11,75.5 " fill="none" id="VUE-to-HTML" style="stroke:#181818;stroke-width:1.0;"/><polygon fill="#181818" points="1185.26,75.5,1176.26,71.5,1180.26,75.5,1176.26,79.5,1185.26,75.5" style="stroke:#181818;stroke-width:1.0;"/></g><!--link HTML to *end*--><g id="link_HTML_*end*"><path d="M1242.62,75.5 C1252.58,75.5 1262.54,75.5 1272.51,75.5 " fill="none" id="HTML-to-*end*" style="stroke:#181818;stroke-width:1.0;"/><polygon fill="#181818" points="1277.72,75.5,1268.72,71.5,1272.72,75.5,1268.72,79.5,1277.72,75.5" style="stroke:#181818;stroke-width:1.0;"/></g><!--SRC=[JL7FIm915BxFN_5E1K8IbPSz1996HOQrQebuc5qdNNUTMSPTpPlH3yWE1GKT988E7OA2wayITVilcfdT2G_pPhxlVM_UlFbggJgiRC9EgR2_WLIKy4IUa8ewcr7PZ8JPDZv3CaXW5hD8BCNJPkXXZf9TKaS4sm5IKS9AEO_4qdSYtQ2MggEukm7RdD6WY9j44pbESATFS8_mVus7koqDeeVdwEPxVdyzk_ZHtE_J-_JpDJf_d8zVuZaCo7F7XW8PY6iIPZ8SRPdc_ErgTdaNZRwcuu_9y7OXcMDqEO02TeceWrBBeQuKoD4DE2OMhALN4zG-30aV9A38MS22WKy0qmQODdVy0DkXny9kekWmeM1ULmcgvTs4tiCz7CiDqOv0ax46-9W7kYxsO0d4izVbjnlG5y-mMSTdb50XKvo5RTSIHBgT4DeP1GvOGsPKQp64ByJQCcFHC0DEiKqinbpfcVY_7gPGPM6CAav0q1y0]--></g></svg>