<?xml version="1.0" encoding="us-ascii" standalone="no"?><svg xmlns="http://www.w3.org/2000/svg" xmlns:xlink="http://www.w3.org/1999/xlink" contentStyleType="text/css" height="283px" preserveAspectRatio="none" style="width:665px;height:283px;background:#FFFFFF;" version="1.1" viewBox="0 0 665 283" width="665px" zoomAndPan="magnify"><defs/><g><ellipse cx="16" cy="63.5" fill="#181818" rx="10" ry="10" style="stroke:none;stroke-width:1.0;"/><g id="HTML4"><rect fill="#F1F1F1" height="113.0781" rx="12.5" ry="12.5" style="stroke:#181818;stroke-width:0.5;" width="97" x="61.5" y="7"/><line style="stroke:#181818;stroke-width:0.5;" x1="61.5" x2="158.5" y1="34.6094" y2="34.6094"/><text fill="#000000" font-family="sans-serif" font-size="14" lengthAdjust="spacing" textLength="45" x="87.5" y="26.5332">HTML4</text><text fill="#000000" font-family="sans-serif" font-size="12" lengthAdjust="spacing" textLength="57" x="66.5" y="52.0664">FrontPage</text><text fill="#000000" font-family="sans-serif" font-size="12" lengthAdjust="spacing" textLength="77" x="66.5" y="67.1602">Dreamweaver</text><text fill="#000000" font-family="sans-serif" font-size="12" lengthAdjust="spacing" textLength="31" x="66.5" y="82.2539">Flash</text><text fill="#000000" font-family="sans-serif" font-size="12" lengthAdjust="spacing" textLength="48" x="66.5" y="97.3477">&#34013;&#33394;&#29702;&#24819;</text><text fill="#000000" font-family="sans-serif" font-size="12" lengthAdjust="spacing" textLength="48" x="66.5" y="112.4414">&#38378;&#23458;&#32852;&#30431;</text></g><g id="XHTML"><rect fill="#F1F1F1" height="82.8906" rx="12.5" ry="12.5" style="stroke:#181818;stroke-width:0.5;" width="156" x="194" y="22"/><line style="stroke:#181818;stroke-width:0.5;" x1="194" x2="350" y1="49.6094" y2="49.6094"/><text fill="#000000" font-family="sans-serif" font-size="14" lengthAdjust="spacing" textLength="45" x="249.5" y="41.5332">XHTML</text><text fill="#000000" font-family="sans-serif" font-size="12" lengthAdjust="spacing" textLength="56" x="199" y="67.0664">Eric Meyer</text><text fill="#000000" font-family="sans-serif" font-size="12" lengthAdjust="spacing" textLength="97" x="199" y="82.1602">&#12298;CSS&#31109;&#24847;&#33457;&#22253;&#12299;</text><text fill="#000000" font-family="sans-serif" font-size="12" lengthAdjust="spacing" textLength="136" x="199" y="97.2539">&#12298;Don't Make Me Think&#12299;</text></g><g id="HTML5"><rect fill="#F1F1F1" height="52.7031" rx="12.5" ry="12.5" style="stroke:#181818;stroke-width:0.5;" width="65" x="385.5" y="37"/><line style="stroke:#181818;stroke-width:0.5;" x1="385.5" x2="450.5" y1="64.6094" y2="64.6094"/><text fill="#000000" font-family="sans-serif" font-size="14" lengthAdjust="spacing" textLength="45" x="395.5" y="56.5332">HTML5</text><text fill="#000000" font-family="sans-serif" font-size="12" lengthAdjust="spacing" textLength="32" x="390.5" y="82.0664">CSS3</text></g><g id="Ajax"><rect fill="#F1F1F1" height="113.0781" rx="12.5" ry="12.5" style="stroke:#181818;stroke-width:0.5;" width="173" x="485.5" y="7"/><line style="stroke:#181818;stroke-width:0.5;" x1="485.5" x2="658.5" y1="34.6094" y2="34.6094"/><text fill="#000000" font-family="sans-serif" font-size="14" lengthAdjust="spacing" textLength="26" x="559" y="26.5332">Ajax</text><text fill="#000000" font-family="sans-serif" font-size="12" lengthAdjust="spacing" textLength="45" x="490.5" y="52.0664">Web 2.0</text><text fill="#000000" font-family="sans-serif" font-size="12" lengthAdjust="spacing" textLength="35" x="490.5" y="67.1602">jQuery</text><text fill="#000000" font-family="sans-serif" font-size="12" lengthAdjust="spacing" textLength="153" x="490.5" y="82.2539">Prototype and Scriptaculous</text><text fill="#000000" font-family="sans-serif" font-size="12" lengthAdjust="spacing" textLength="98" x="490.5" y="97.3477">mootools and YUI</text><text fill="#000000" font-family="sans-serif" font-size="12" lengthAdjust="spacing" textLength="145" x="490.5" y="112.4414">JavaScript: The good parts</text></g><g id="SPA"><rect fill="#F1F1F1" height="97.9844" rx="12.5" ry="12.5" style="stroke:#181818;stroke-width:0.5;" width="141" x="501.5" y="180"/><line style="stroke:#181818;stroke-width:0.5;" x1="501.5" x2="642.5" y1="207.6094" y2="207.6094"/><text fill="#000000" font-family="sans-serif" font-size="14" lengthAdjust="spacing" textLength="27" x="558.5" y="199.5332">SPA</text><text fill="#000000" font-family="sans-serif" font-size="12" lengthAdjust="spacing" textLength="100" x="506.5" y="225.0664">Web Components</text><text fill="#000000" font-family="sans-serif" font-size="12" lengthAdjust="spacing" textLength="67" x="506.5" y="240.1602">backbone.js</text><text fill="#000000" font-family="sans-serif" font-size="12" lengthAdjust="spacing" textLength="42" x="506.5" y="255.2539">Angular</text><text fill="#000000" font-family="sans-serif" font-size="12" lengthAdjust="spacing" textLength="121" x="506.5" y="270.3477">Node.js and Webpack</text></g><g id="Angular"><rect fill="#F1F1F1" height="52.7031" rx="12.5" ry="12.5" style="stroke:#181818;stroke-width:0.5;" width="96" x="370" y="202.5"/><line style="stroke:#181818;stroke-width:0.5;" x1="370" x2="466" y1="230.1094" y2="230.1094"/><text fill="#000000" font-family="sans-serif" font-size="14" lengthAdjust="spacing" textLength="49" x="393.5" y="222.0332">Angular</text><text fill="#000000" font-family="sans-serif" font-size="12" lengthAdjust="spacing" textLength="76" x="375" y="247.5664">Google Gmail</text></g><g id="React"><rect fill="#F1F1F1" height="52.7031" rx="12.5" ry="12.5" style="stroke:#181818;stroke-width:0.5;" width="70" x="265" y="202.5"/><line style="stroke:#181818;stroke-width:0.5;" x1="265" x2="335" y1="230.1094" y2="230.1094"/><text fill="#000000" font-family="sans-serif" font-size="14" lengthAdjust="spacing" textLength="37" x="281.5" y="222.0332">React</text><text fill="#000000" font-family="sans-serif" font-size="12" lengthAdjust="spacing" textLength="50" x="270" y="247.5664">facebook</text></g><g id="Vue"><rect fill="#F1F1F1" height="67.7969" rx="12.5" ry="12.5" style="stroke:#181818;stroke-width:0.5;" width="71" x="158.5" y="195"/><line style="stroke:#181818;stroke-width:0.5;" x1="158.5" x2="229.5" y1="222.6094" y2="222.6094"/><text fill="#000000" font-family="sans-serif" font-size="14" lengthAdjust="spacing" textLength="25" x="181.5" y="214.5332">Vue</text><text fill="#000000" font-family="sans-serif" font-size="12" lengthAdjust="spacing" textLength="51" x="163.5" y="240.0664">Evan You</text><text fill="#000000" font-family="sans-serif" font-size="12" lengthAdjust="spacing" textLength="20" x="163.5" y="255.1602">Vite</text></g><ellipse cx="113" cy="229" fill="none" rx="10" ry="10" style="stroke:#181818;stroke-width:1.0;"/><ellipse cx="113.5" cy="229.5" fill="#181818" rx="6" ry="6" style="stroke:none;stroke-width:1.0;"/><!--link *start* to HTML4--><g id="link_*start*_HTML4"><path d="M26.28,63.5 C36.21,63.5 46.15,63.5 56.08,63.5 " fill="none" id="*start*-to-HTML4" style="stroke:#181818;stroke-width:1.0;"/><polygon fill="#181818" points="61.27,63.5,52.27,59.5,56.27,63.5,52.27,67.5,61.27,63.5" style="stroke:#181818;stroke-width:1.0;"/></g><!--link HTML4 to XHTML--><g id="link_HTML4_XHTML"><path d="M158.73,63.5 C168.65,63.5 178.57,63.5 188.49,63.5 " fill="none" id="HTML4-to-XHTML" style="stroke:#181818;stroke-width:1.0;"/><polygon fill="#181818" points="193.68,63.5,184.68,59.5,188.68,63.5,184.68,67.5,193.68,63.5" style="stroke:#181818;stroke-width:1.0;"/></g><!--link XHTML to HTML5--><g id="link_XHTML_HTML5"><path d="M350.13,63.5 C360.14,63.5 370.15,63.5 380.16,63.5 " fill="none" id="XHTML-to-HTML5" style="stroke:#181818;stroke-width:1.0;"/><polygon fill="#181818" points="385.39,63.5,376.39,59.5,380.39,63.5,376.39,67.5,385.39,63.5" style="stroke:#181818;stroke-width:1.0;"/></g><!--link HTML5 to Ajax--><g id="link_HTML5_Ajax"><path d="M450.79,63.5 C460.6,63.5 470.41,63.5 480.22,63.5 " fill="none" id="HTML5-to-Ajax" style="stroke:#181818;stroke-width:1.0;"/><polygon fill="#181818" points="485.35,63.5,476.35,59.5,480.35,63.5,476.35,67.5,485.35,63.5" style="stroke:#181818;stroke-width:1.0;"/></g><!--link Ajax to SPA--><g id="link_Ajax_SPA"><path d="M572,120.31 C572,137.83 572,157.13 572,174.49 " fill="none" id="Ajax-to-SPA" style="stroke:#181818;stroke-width:1.0;"/><polygon fill="#181818" points="572,179.81,576,170.81,572,174.81,568,170.81,572,179.81" style="stroke:#181818;stroke-width:1.0;"/></g><!--reverse link Angular to SPA--><g id="link_Angular_SPA"><path d="M471.34,229 C481.32,229 491.3,229 501.28,229 " fill="none" id="Angular-backto-SPA" style="stroke:#181818;stroke-width:1.0;"/><polygon fill="#181818" points="466.12,229,475.1314,232.9743,471.12,228.9857,475.1085,224.9743,466.12,229" style="stroke:#181818;stroke-width:1.0;"/></g><!--reverse link React to Angular--><g id="link_React_Angular"><path d="M340.18,229 C350.02,229 359.87,229 369.71,229 " fill="none" id="React-backto-Angular" style="stroke:#181818;stroke-width:1.0;"/><polygon fill="#181818" points="335.03,229,344.03,233,340.03,229,344.03,225,335.03,229" style="stroke:#181818;stroke-width:1.0;"/></g><!--reverse link Vue to React--><g id="link_Vue_React"><path d="M234.83,229 C244.82,229 254.81,229 264.8,229 " fill="none" id="Vue-backto-React" style="stroke:#181818;stroke-width:1.0;"/><polygon fill="#181818" points="229.61,229,238.61,233,234.61,229,238.61,225,229.61,229" style="stroke:#181818;stroke-width:1.0;"/></g><!--reverse link *end* to Vue--><g id="link_*end*_Vue"><path d="M128.34,229 C138.32,229 148.31,229 158.29,229 " fill="none" id="*end*-backto-Vue" style="stroke:#181818;stroke-width:1.0;"/><polygon fill="#181818" points="123.12,229,132.1314,232.9743,128.12,228.9857,132.1085,224.9743,123.12,229" style="stroke:#181818;stroke-width:1.0;"/></g><!--SRC=[JP5DIyD048Rl-olc9WWLyUEIWo1-YvLgjLgAXsawrhJfJjXkghqfVe1wK53m829uy20eg3z9jFLVkBj9YeUTxFlCEvbafZAy0xafMDp8hqm85wtSjZVXOfQTTDb9AwSRU21iW5oDzwKXnSAqC0To8Urgwv3rE4GbqkU0hnFwMhWuOAMOX3a3NHdU4ScNU32lMEe2rYa3iugmjK_O8JNmXDZUoqJ_vg5__j6xFliv_ipOxztBzzjJ_-YsT_-O_9C7Sohm8KzTyvgKV1rUp1IBlUVJdvEh_iNxz_thr-7bl-Gioo4DUMoIgOEDlK0shS4DnGDJEkv6ui4MLM5iP3HLZRMOL3SL1SMQTJSYG5c3eg-2IACVXnotKqUBZOF3jZEKDvTIl8mTJEoUQKrGPwv1X4gtxTYJdZFSYbYIp5WL_MRLW9562hAbEB7ADPjnVKnrPCpPjZnOOAw710ij3C9aMnxieazLvgRTbPbV1oMKEKvKAT0a_W00]--></g></svg>