<?xml version="1.0" encoding="us-ascii" standalone="no"?><svg xmlns="http://www.w3.org/2000/svg" xmlns:xlink="http://www.w3.org/1999/xlink" contentStyleType="text/css" height="700px" preserveAspectRatio="none" style="width:345px;height:700px;background:#FFFFFF;" version="1.1" viewBox="0 0 345 700" width="345px" zoomAndPan="magnify"><defs/><g><!--cluster ????--><g id="cluster_&#31508;&#35760;&#20934;&#22791;"><path d="M38.5,50 L319.5,50 A12.5,12.5 0 0 1 332,62.5 L332,74.1201 L26,74.1201 L26,62.5 A12.5,12.5 0 0 1 38.5,50 " fill="#F1F1F1" style="stroke:#F1F1F1;stroke-width:1.0;"/><rect fill="none" height="126" rx="12.5" ry="12.5" style="stroke:#181818;stroke-width:0.5;" width="306" x="26" y="50"/><line style="stroke:#181818;stroke-width:0.5;" x1="26" x2="332" y1="74.1201" y2="74.1201"/><text fill="#000000" font-family="sans-serif" font-size="14" lengthAdjust="spacing" textLength="56" x="151" y="70.0439">&#31508;&#35760;&#20934;&#22791;</text></g><!--cluster ????--><g id="cluster_&#31508;&#35760;&#35760;&#24405;"><path d="M19.5,208 L311.5,208 A12.5,12.5 0 0 1 324,220.5 L324,232.1201 L7,232.1201 L7,220.5 A12.5,12.5 0 0 1 19.5,208 " fill="#F1F1F1" style="stroke:#F1F1F1;stroke-width:1.0;"/><rect fill="none" height="142" rx="12.5" ry="12.5" style="stroke:#181818;stroke-width:0.5;" width="317" x="7" y="208"/><line style="stroke:#181818;stroke-width:0.5;" x1="7" x2="324" y1="232.1201" y2="232.1201"/><text fill="#000000" font-family="sans-serif" font-size="14" lengthAdjust="spacing" textLength="56" x="137.5" y="228.0439">&#31508;&#35760;&#35760;&#24405;</text></g><g id="&#31508;&#35760;&#20934;&#22791;.&#25171;&#24320;&#36719;&#20214;"><rect fill="#F1F1F1" height="55.5088" rx="12.5" ry="12.5" style="stroke:#181818;stroke-width:0.5;" width="128" x="180" y="96"/><line style="stroke:#181818;stroke-width:0.5;" x1="180" x2="308" y1="125.1201" y2="125.1201"/><text fill="#000000" font-family="sans-serif" font-size="14" lengthAdjust="spacing" textLength="56" x="216" y="117.0439">&#25171;&#24320;&#36719;&#20214;</text><text fill="#000000" font-family="sans-serif" font-size="12" lengthAdjust="spacing" textLength="108" x="185" y="143.8721">&#31616;&#21333;&#30028;&#38754;&#65292;&#24102;&#20803;&#25968;&#25454;</text></g><g id="&#31508;&#35760;&#20934;&#22791;.&#25235;&#21462;&#20869;&#23481;"><rect fill="#F1F1F1" height="55.5088" rx="12.5" ry="12.5" style="stroke:#181818;stroke-width:0.5;" width="76" x="69" y="96"/><line style="stroke:#181818;stroke-width:0.5;" x1="69" x2="145" y1="125.1201" y2="125.1201"/><text fill="#000000" font-family="sans-serif" font-size="14" lengthAdjust="spacing" textLength="56" x="79" y="117.0439">&#25235;&#21462;&#20869;&#23481;</text><text fill="#000000" font-family="sans-serif" font-size="12" lengthAdjust="spacing" textLength="48" x="74" y="143.8721">&#31532;&#20108;&#20837;&#21475;</text></g><g id="&#31508;&#35760;&#35760;&#24405;.&#20889;&#20316;&#30028;&#38754;"><rect fill="#F1F1F1" height="88.2861" rx="12.5" ry="12.5" style="stroke:#181818;stroke-width:0.5;" width="104" x="204" y="246"/><line style="stroke:#181818;stroke-width:0.5;" x1="204" x2="308" y1="275.1201" y2="275.1201"/><text fill="#000000" font-family="sans-serif" font-size="14" lengthAdjust="spacing" textLength="56" x="228" y="267.0439">&#20889;&#20316;&#30028;&#38754;</text><text fill="#000000" font-family="sans-serif" font-size="12" lengthAdjust="spacing" textLength="72" x="209" y="293.8721">&#29616;&#26377;&#31508;&#35760;&#22238;&#39038;</text><text fill="#000000" font-family="sans-serif" font-size="12" lengthAdjust="spacing" textLength="72" x="209" y="310.2607">&#30830;&#23450;&#20027;&#39064;&#25552;&#38382;</text><text fill="#000000" font-family="sans-serif" font-size="12" lengthAdjust="spacing" textLength="84" x="209" y="326.6494">&#22260;&#32469;&#20027;&#39064;&#30340;&#25552;&#31034;</text></g><g id="&#31508;&#35760;&#35760;&#24405;.&#20889;&#20316;&#30028;&#38754;&#21547;&#25235;&#21462;&#20869;&#23481;"><rect fill="#F1F1F1" height="71.8975" rx="12.5" ry="12.5" style="stroke:#181818;stroke-width:0.5;" width="146" x="23" y="254"/><line style="stroke:#181818;stroke-width:0.5;" x1="23" x2="169" y1="283.1201" y2="283.1201"/><text fill="#000000" font-family="sans-serif" font-size="14" lengthAdjust="spacing" textLength="126" x="33" y="275.0439">&#20889;&#20316;&#30028;&#38754;&#21547;&#25235;&#21462;&#20869;&#23481;</text><text fill="#000000" font-family="sans-serif" font-size="12" lengthAdjust="spacing" textLength="48" x="28" y="301.8721">&#20869;&#23884;&#23545;&#35937;</text><text fill="#000000" font-family="sans-serif" font-size="12" lengthAdjust="spacing" textLength="96" x="28" y="318.2607">&#21487;&#36873;&#23545;&#35937;&#26412;&#22320;&#20445;&#23384;</text></g><ellipse cx="34" cy="16" fill="#181818" rx="10" ry="10" style="stroke:none;stroke-width:1.0;"/><g id="&#31508;&#35760;&#39044;&#35272;"><rect fill="#F1F1F1" height="71.8975" rx="12.5" ry="12.5" style="stroke:#181818;stroke-width:0.5;" width="76" x="138" y="394"/><line style="stroke:#181818;stroke-width:0.5;" x1="138" x2="214" y1="423.1201" y2="423.1201"/><text fill="#000000" font-family="sans-serif" font-size="14" lengthAdjust="spacing" textLength="56" x="148" y="415.0439">&#31508;&#35760;&#39044;&#35272;</text><text fill="#000000" font-family="sans-serif" font-size="12" lengthAdjust="spacing" textLength="48" x="143" y="441.8721">&#26412;&#22320;&#39044;&#35272;</text><text fill="#000000" font-family="sans-serif" font-size="12" lengthAdjust="spacing" textLength="48" x="143" y="458.2607">&#36828;&#31243;&#39044;&#35272;</text></g><g id="&#31508;&#35760;&#21457;&#24067;"><rect fill="#F1F1F1" height="88.2861" rx="12.5" ry="12.5" style="stroke:#181818;stroke-width:0.5;" width="104" x="124" y="526"/><line style="stroke:#181818;stroke-width:0.5;" x1="124" x2="228" y1="555.1201" y2="555.1201"/><text fill="#000000" font-family="sans-serif" font-size="14" lengthAdjust="spacing" textLength="56" x="148" y="547.0439">&#31508;&#35760;&#21457;&#24067;</text><text fill="#000000" font-family="sans-serif" font-size="12" lengthAdjust="spacing" textLength="48" x="129" y="573.8721">&#21457;&#24067;&#20301;&#32622;</text><text fill="#000000" font-family="sans-serif" font-size="12" lengthAdjust="spacing" textLength="72" x="129" y="590.2607">&#26159;&#21542;&#33258;&#21160;&#21457;&#24067;</text><text fill="#000000" font-family="sans-serif" font-size="12" lengthAdjust="spacing" textLength="84" x="129" y="606.6494">&#33258;&#23450;&#20041;&#26465;&#20214;&#21457;&#24067;</text></g><ellipse cx="176" cy="684" fill="none" rx="10" ry="10" style="stroke:#181818;stroke-width:1.0;"/><ellipse cx="176.5" cy="684.5" fill="#181818" rx="6" ry="6" style="stroke:none;stroke-width:1.0;"/><!--link *start* to ????--><g id="link_*start*_&#31508;&#35760;&#20934;&#22791;"><path d="M34,26.04 C34,29.1937 34,33.0394 34,37.3589 C34,39.5186 34,41.7968 34,44.1663 C34,45.351 34,46.5585 34,47.7854 C34,48.3989 34,49.0172 34,49.6399 " fill="none" id="*start*-to-&#31508;&#35760;&#20934;&#22791;" style="stroke:#181818;stroke-width:1.0;"/><polygon fill="#181818" points="34,49.6399,38,40.6399,34,44.6399,30,40.6399,34,49.6399" style="stroke:#181818;stroke-width:1.0;"/></g><!--link ???? to ????--><g id="link_&#25171;&#24320;&#36719;&#20214;_&#20889;&#20316;&#30028;&#38754;"><path d="M245.98,152.08 C247.74,176.06 250.34,211.64 252.45,240.52 " fill="none" id="&#25171;&#24320;&#36719;&#20214;-to-&#20889;&#20316;&#30028;&#38754;" style="stroke:#181818;stroke-width:1.0;"/><polygon fill="#181818" points="252.84,245.83,256.1867,236.5672,252.4827,240.8428,248.2072,237.1388,252.84,245.83" style="stroke:#181818;stroke-width:1.0;"/></g><!--link ???? to ?????????--><g id="link_&#25235;&#21462;&#20869;&#23481;_&#20889;&#20316;&#30028;&#38754;&#21547;&#25235;&#21462;&#20869;&#23481;"><path d="M105.18,152.08 C103.42,178.4 100.72,218.68 98.7,248.75 " fill="none" id="&#25235;&#21462;&#20869;&#23481;-to-&#20889;&#20316;&#30028;&#38754;&#21547;&#25235;&#21462;&#20869;&#23481;" style="stroke:#181818;stroke-width:1.0;"/><polygon fill="#181818" points="98.36,253.86,102.9432,245.1425,98.6888,248.8708,94.9605,244.6164,98.36,253.86" style="stroke:#181818;stroke-width:1.0;"/></g><!--link ???? to ????--><g id="link_&#20889;&#20316;&#30028;&#38754;_&#31508;&#35760;&#39044;&#35272;"><path d="M230.91,334.29 C220.77,351.77 209.14,371.83 199.21,388.97 " fill="none" id="&#20889;&#20316;&#30028;&#38754;-to-&#31508;&#35760;&#39044;&#35272;" style="stroke:#181818;stroke-width:1.0;"/><polygon fill="#181818" points="196.45,393.72,204.4233,387.9384,198.9569,389.3938,197.5015,383.9274,196.45,393.72" style="stroke:#181818;stroke-width:1.0;"/></g><!--link ????????? to ????--><g id="link_&#20889;&#20316;&#30028;&#38754;&#21547;&#25235;&#21462;&#20869;&#23481;_&#31508;&#35760;&#39044;&#35272;"><path d="M116.39,326.18 C127.58,345.48 141.49,369.48 153.06,389.43 " fill="none" id="&#20889;&#20316;&#30028;&#38754;&#21547;&#25235;&#21462;&#20869;&#23481;-to-&#31508;&#35760;&#39044;&#35272;" style="stroke:#181818;stroke-width:1.0;"/><polygon fill="#181818" points="155.64,393.88,154.5784,384.0885,153.1286,389.5565,147.6607,388.1067,155.64,393.88" style="stroke:#181818;stroke-width:1.0;"/></g><!--link ???? to ????--><g id="link_&#31508;&#35760;&#39044;&#35272;_&#31508;&#35760;&#21457;&#24067;"><path d="M176,466.18 C176,482.82 176,502.95 176,520.97 " fill="none" id="&#31508;&#35760;&#39044;&#35272;-to-&#31508;&#35760;&#21457;&#24067;" style="stroke:#181818;stroke-width:1.0;"/><polygon fill="#181818" points="176,526,180,517,176,521,172,517,176,526" style="stroke:#181818;stroke-width:1.0;"/></g><!--link ???? to *end*--><g id="link_&#31508;&#35760;&#21457;&#24067;_*end*"><path d="M176,614.3 C176,633.65 176,655.13 176,668.83 " fill="none" id="&#31508;&#35760;&#21457;&#24067;-to-*end*" style="stroke:#181818;stroke-width:1.0;"/><polygon fill="#181818" points="176,673.86,180,664.86,176,668.86,172,664.86,176,673.86" style="stroke:#181818;stroke-width:1.0;"/></g><!--SRC=[XP71Ji9048Rl-nHxDk45Ul15Z0SFFW7S30a952mMYu5gXTQa5P5etTP43L0gBzFPRK- -WbjAmcubU9hiV7_- -MUsMZkhdMFc3rCIGgSDamw-G1XNDssg3M3LIECWYRusxVeETGTWt49R1RBOeZf2LS4jDunDmGtQzqbiCrFF7A_a9YBel-utFpawnPNAiHGMIH5pAbeXoQXCIuEGb6ytAFDQwVCbEXJnZrXyY9cD6vWtaVZOKBuPaZPHC2CDw9d5k9-L3lCfg4rgXhH73aLHS5u_TGWMwRlxZz88iePMAAdjWnqcQmVUB2JBcEydIntK9p0U9KEEhaDgQzjrnW-P-rqMk0J8A9b7cMTHev_TaP80nXyiCWi16xMuXasMqlaKN6JRSra5fskRpQuaL9mrtowlITnZCIaXQWNGdwQT5-ZEzdm9j-M8nrver77vRsmrlm00]--></g></svg>