<?xml version="1.0" encoding="us-ascii" standalone="no"?><svg xmlns="http://www.w3.org/2000/svg" xmlns:xlink="http://www.w3.org/1999/xlink" contentStyleType="text/css" height="679px" preserveAspectRatio="none" style="width:345px;height:679px;background:#FFFFFF;" version="1.1" viewBox="0 0 345 679" width="345px" zoomAndPan="magnify"><defs/><g><!--cluster ????--><g id="cluster_&#31508;&#35760;&#20934;&#22791;"><path d="M38.5,50 L319.5,50 A12.5,12.5 0 0 1 332,62.5 L332,72.6094 L26,72.6094 L26,62.5 A12.5,12.5 0 0 1 38.5,50 " fill="#F1F1F1" style="stroke:#F1F1F1;stroke-width:1.0;"/><rect fill="none" height="121" rx="12.5" ry="12.5" style="stroke:#181818;stroke-width:0.5;" width="306" x="26" y="50"/><line style="stroke:#181818;stroke-width:0.5;" x1="26" x2="332" y1="72.6094" y2="72.6094"/><text fill="#000000" font-family="sans-serif" font-size="14" lengthAdjust="spacing" textLength="56" x="151" y="68.5332">&#31508;&#35760;&#20934;&#22791;</text></g><!--cluster ????--><g id="cluster_&#31508;&#35760;&#35760;&#24405;"><path d="M19.5,203 L311.5,203 A12.5,12.5 0 0 1 324,215.5 L324,225.6094 L7,225.6094 L7,215.5 A12.5,12.5 0 0 1 19.5,203 " fill="#F1F1F1" style="stroke:#F1F1F1;stroke-width:1.0;"/><rect fill="none" height="135" rx="12.5" ry="12.5" style="stroke:#181818;stroke-width:0.5;" width="317" x="7" y="203"/><line style="stroke:#181818;stroke-width:0.5;" x1="7" x2="324" y1="225.6094" y2="225.6094"/><text fill="#000000" font-family="sans-serif" font-size="14" lengthAdjust="spacing" textLength="56" x="137.5" y="221.5332">&#31508;&#35760;&#35760;&#24405;</text></g><g id="&#31508;&#35760;&#20934;&#22791;.&#25171;&#24320;&#36719;&#20214;"><rect fill="#F1F1F1" height="52.7031" rx="12.5" ry="12.5" style="stroke:#181818;stroke-width:0.5;" width="128" x="180" y="94"/><line style="stroke:#181818;stroke-width:0.5;" x1="180" x2="308" y1="121.6094" y2="121.6094"/><text fill="#000000" font-family="sans-serif" font-size="14" lengthAdjust="spacing" textLength="56" x="216" y="113.5332">&#25171;&#24320;&#36719;&#20214;</text><text fill="#000000" font-family="sans-serif" font-size="12" lengthAdjust="spacing" textLength="108" x="185" y="139.0664">&#31616;&#21333;&#30028;&#38754;&#65292;&#24102;&#20803;&#25968;&#25454;</text></g><g id="&#31508;&#35760;&#20934;&#22791;.&#25235;&#21462;&#20869;&#23481;"><rect fill="#F1F1F1" height="52.7031" rx="12.5" ry="12.5" style="stroke:#181818;stroke-width:0.5;" width="76" x="69" y="94"/><line style="stroke:#181818;stroke-width:0.5;" x1="69" x2="145" y1="121.6094" y2="121.6094"/><text fill="#000000" font-family="sans-serif" font-size="14" lengthAdjust="spacing" textLength="56" x="79" y="113.5332">&#25235;&#21462;&#20869;&#23481;</text><text fill="#000000" font-family="sans-serif" font-size="12" lengthAdjust="spacing" textLength="48" x="74" y="139.0664">&#31532;&#20108;&#20837;&#21475;</text></g><g id="&#31508;&#35760;&#35760;&#24405;.&#20889;&#20316;&#30028;&#38754;"><rect fill="#F1F1F1" height="82.8906" rx="12.5" ry="12.5" style="stroke:#181818;stroke-width:0.5;" width="104" x="204" y="239"/><line style="stroke:#181818;stroke-width:0.5;" x1="204" x2="308" y1="266.6094" y2="266.6094"/><text fill="#000000" font-family="sans-serif" font-size="14" lengthAdjust="spacing" textLength="56" x="228" y="258.5332">&#20889;&#20316;&#30028;&#38754;</text><text fill="#000000" font-family="sans-serif" font-size="12" lengthAdjust="spacing" textLength="72" x="209" y="284.0664">&#29616;&#26377;&#31508;&#35760;&#22238;&#39038;</text><text fill="#000000" font-family="sans-serif" font-size="12" lengthAdjust="spacing" textLength="72" x="209" y="299.1602">&#30830;&#23450;&#20027;&#39064;&#25552;&#38382;</text><text fill="#000000" font-family="sans-serif" font-size="12" lengthAdjust="spacing" textLength="84" x="209" y="314.2539">&#22260;&#32469;&#20027;&#39064;&#30340;&#25552;&#31034;</text></g><g id="&#31508;&#35760;&#35760;&#24405;.&#20889;&#20316;&#30028;&#38754;&#21547;&#25235;&#21462;&#20869;&#23481;"><rect fill="#F1F1F1" height="67.7969" rx="12.5" ry="12.5" style="stroke:#181818;stroke-width:0.5;" width="146" x="23" y="246.5"/><line style="stroke:#181818;stroke-width:0.5;" x1="23" x2="169" y1="274.1094" y2="274.1094"/><text fill="#000000" font-family="sans-serif" font-size="14" lengthAdjust="spacing" textLength="126" x="33" y="266.0332">&#20889;&#20316;&#30028;&#38754;&#21547;&#25235;&#21462;&#20869;&#23481;</text><text fill="#000000" font-family="sans-serif" font-size="12" lengthAdjust="spacing" textLength="48" x="28" y="291.5664">&#20869;&#23884;&#23545;&#35937;</text><text fill="#000000" font-family="sans-serif" font-size="12" lengthAdjust="spacing" textLength="96" x="28" y="306.6602">&#21487;&#36873;&#23545;&#35937;&#26412;&#22320;&#20445;&#23384;</text></g><ellipse cx="34" cy="16" fill="#181818" rx="10" ry="10" style="stroke:none;stroke-width:1.0;"/><g id="&#31508;&#35760;&#39044;&#35272;"><rect fill="#F1F1F1" height="67.7969" rx="12.5" ry="12.5" style="stroke:#181818;stroke-width:0.5;" width="76" x="138" y="382"/><line style="stroke:#181818;stroke-width:0.5;" x1="138" x2="214" y1="409.6094" y2="409.6094"/><text fill="#000000" font-family="sans-serif" font-size="14" lengthAdjust="spacing" textLength="56" x="148" y="401.5332">&#31508;&#35760;&#39044;&#35272;</text><text fill="#000000" font-family="sans-serif" font-size="12" lengthAdjust="spacing" textLength="48" x="143" y="427.0664">&#26412;&#22320;&#39044;&#35272;</text><text fill="#000000" font-family="sans-serif" font-size="12" lengthAdjust="spacing" textLength="48" x="143" y="442.1602">&#36828;&#31243;&#39044;&#35272;</text></g><g id="&#31508;&#35760;&#21457;&#24067;"><rect fill="#F1F1F1" height="82.8906" rx="12.5" ry="12.5" style="stroke:#181818;stroke-width:0.5;" width="104" x="124" y="510"/><line style="stroke:#181818;stroke-width:0.5;" x1="124" x2="228" y1="537.6094" y2="537.6094"/><text fill="#000000" font-family="sans-serif" font-size="14" lengthAdjust="spacing" textLength="56" x="148" y="529.5332">&#31508;&#35760;&#21457;&#24067;</text><text fill="#000000" font-family="sans-serif" font-size="12" lengthAdjust="spacing" textLength="48" x="129" y="555.0664">&#21457;&#24067;&#20301;&#32622;</text><text fill="#000000" font-family="sans-serif" font-size="12" lengthAdjust="spacing" textLength="72" x="129" y="570.1602">&#26159;&#21542;&#33258;&#21160;&#21457;&#24067;</text><text fill="#000000" font-family="sans-serif" font-size="12" lengthAdjust="spacing" textLength="84" x="129" y="585.2539">&#33258;&#23450;&#20041;&#26465;&#20214;&#21457;&#24067;</text></g><ellipse cx="176" cy="663" fill="none" rx="10" ry="10" style="stroke:#181818;stroke-width:1.0;"/><ellipse cx="176.5" cy="663.5" fill="#181818" rx="6" ry="6" style="stroke:none;stroke-width:1.0;"/><!--link *start* to ????--><g id="link_*start*_&#31508;&#35760;&#20934;&#22791;"><path d="M34,26.1 C34,29.1863 34,32.9272 34,37.115 C34,39.2088 34,41.4144 34,43.7058 C34,44.8514 34,46.0185 34,47.2038 C34,47.7964 34,48.3936 34,48.9949 C34,49.2956 34,49.5973 34,49.9 " fill="none" id="*start*-to-&#31508;&#35760;&#20934;&#22791;" style="stroke:#181818;stroke-width:1.0;"/><polygon fill="#181818" points="34,49.9,38,40.9,34,44.9,30,40.9,34,49.9" style="stroke:#181818;stroke-width:1.0;"/></g><!--link ???? to ????--><g id="link_&#25171;&#24320;&#36719;&#20214;_&#20889;&#20316;&#30028;&#38754;"><path d="M245.95,147.24 C247.73,170.62 250.39,205.64 252.53,233.78 " fill="none" id="&#25171;&#24320;&#36719;&#20214;-to-&#20889;&#20316;&#30028;&#38754;" style="stroke:#181818;stroke-width:1.0;"/><polygon fill="#181818" points="252.92,238.95,256.2139,229.6683,252.5343,233.9649,248.2377,230.2853,252.92,238.95" style="stroke:#181818;stroke-width:1.0;"/></g><!--link ???? to ?????????--><g id="link_&#25235;&#21462;&#20869;&#23481;_&#20889;&#20316;&#30028;&#38754;&#21547;&#25235;&#21462;&#20869;&#23481;"><path d="M105.21,147.24 C103.44,172.67 100.71,211.9 98.68,241.04 " fill="none" id="&#25235;&#21462;&#20869;&#23481;-to-&#20889;&#20316;&#30028;&#38754;&#21547;&#25235;&#21462;&#20869;&#23481;" style="stroke:#181818;stroke-width:1.0;"/><polygon fill="#181818" points="98.31,246.35,102.918,237.6456,98.653,241.3618,94.9369,237.0968,98.31,246.35" style="stroke:#181818;stroke-width:1.0;"/></g><!--link ???? to ????--><g id="link_&#20889;&#20316;&#30028;&#38754;_&#31508;&#35760;&#39044;&#35272;"><path d="M231.56,322.28 C221.06,339.81 208.86,360.17 198.57,377.34 " fill="none" id="&#20889;&#20316;&#30028;&#38754;-to-&#31508;&#35760;&#39044;&#35272;" style="stroke:#181818;stroke-width:1.0;"/><polygon fill="#181818" points="195.99,381.64,204.0421,375.9687,198.5562,377.3488,197.1761,371.8628,195.99,381.64" style="stroke:#181818;stroke-width:1.0;"/></g><!--link ????????? to ????--><g id="link_&#20889;&#20316;&#30028;&#38754;&#21547;&#25235;&#21462;&#20869;&#23481;_&#31508;&#35760;&#39044;&#35272;"><path d="M115.78,314.5 C127.22,333.59 141.66,357.69 153.53,377.5 " fill="none" id="&#20889;&#20316;&#30028;&#38754;&#21547;&#25235;&#21462;&#20869;&#23481;-to-&#31508;&#35760;&#39044;&#35272;" style="stroke:#181818;stroke-width:1.0;"/><polygon fill="#181818" points="156.17,381.92,154.9839,372.1428,153.6038,377.6288,148.1179,376.2487,156.17,381.92" style="stroke:#181818;stroke-width:1.0;"/></g><!--link ???? to ????--><g id="link_&#31508;&#35760;&#39044;&#35272;_&#31508;&#35760;&#21457;&#24067;"><path d="M176,450 C176,466.52 176,486.77 176,504.76 " fill="none" id="&#31508;&#35760;&#39044;&#35272;-to-&#31508;&#35760;&#21457;&#24067;" style="stroke:#181818;stroke-width:1.0;"/><polygon fill="#181818" points="176,509.77,180,500.77,176,504.77,172,500.77,176,509.77" style="stroke:#181818;stroke-width:1.0;"/></g><!--link ???? to *end*--><g id="link_&#31508;&#35760;&#21457;&#24067;_*end*"><path d="M176,593.27 C176,612.38 176,633.93 176,647.72 " fill="none" id="&#31508;&#35760;&#21457;&#24067;-to-*end*" style="stroke:#181818;stroke-width:1.0;"/><polygon fill="#181818" points="176,652.78,180,643.78,176,647.78,172,643.78,176,652.78" style="stroke:#181818;stroke-width:1.0;"/></g><!--SRC=[XP71Ji9048Rl-nHxDk45Ul15Z0SFFW7S30a952mMYu5gXTQa5P5etTP43L0gBzFPRK- -WbjAmcubU9hiV7_- -MUsMZkhdMFc3rCIGgSDamw-G1XNDssg3M3LIECWYRusxVeETGTWt49R1RBOeZf2LS4jDunDmGtQzqbiCrFF7A_a9YBel-utFpawnPNAiHGMIH5pAbeXoQXCIuEGb6ytAFDQwVCbEXJnZrXyY9cD6vWtaVZOKBuPaZPHC2CDw9d5k9-L3lCfg4rgXhH73aLHS5u_TGWMwRlxZz88iePMAAdjWnqcQmVUB2JBcEydIntK9p0U9KEEhaDgQzjrnW-P-rqMk0J8A9b7cMTHev_TaP80nXyiCWi16xMuXasMqlaKN6JRSra5fskRpQuaL9mrtowlITnZCIaXQWNGdwQT5-ZEzdm9j-M8nrver77vRsmrlm00]--></g></svg>