<?xml version="1.0" encoding="us-ascii" standalone="no"?><svg xmlns="http://www.w3.org/2000/svg" xmlns:xlink="http://www.w3.org/1999/xlink" contentStyleType="text/css" height="308px" preserveAspectRatio="none" style="width:114px;height:308px;background:#FFFFFF;" version="1.1" viewBox="0 0 114 308" width="114px" zoomAndPan="magnify"><defs/><g><ellipse cx="57" cy="20" fill="#222222" rx="10" ry="10" style="stroke:#222222;stroke-width:1.0;"/><rect fill="#F1F1F1" height="36.3887" rx="12.5" ry="12.5" style="stroke:#181818;stroke-width:0.5;" width="68" x="23" y="50"/><text fill="#000000" font-family="sans-serif" font-size="12" lengthAdjust="spacing" textLength="48" x="33" y="73.752">&#24320;&#22987;&#39033;&#30446;</text><rect fill="#F1F1F1" height="36.3887" rx="12.5" ry="12.5" style="stroke:#181818;stroke-width:0.5;" width="80" x="17" y="106.3887"/><text fill="#000000" font-family="sans-serif" font-size="12" lengthAdjust="spacing" textLength="60" x="27" y="130.1406">&#32452;&#32455;&#19982;&#20934;&#22791;</text><rect fill="#F1F1F1" height="36.3887" rx="12.5" ry="12.5" style="stroke:#181818;stroke-width:0.5;" width="92" x="11" y="162.7773"/><text fill="#000000" font-family="sans-serif" font-size="12" lengthAdjust="spacing" textLength="72" x="21" y="186.5293">&#25191;&#34892;&#39033;&#30446;&#24037;&#20316;</text><rect fill="#F1F1F1" height="36.3887" rx="12.5" ry="12.5" style="stroke:#181818;stroke-width:0.5;" width="68" x="23" y="219.166"/><text fill="#000000" font-family="sans-serif" font-size="12" lengthAdjust="spacing" textLength="48" x="33" y="242.918">&#32467;&#26463;&#39033;&#30446;</text><ellipse cx="57" cy="286.5547" fill="none" rx="11" ry="11" style="stroke:#222222;stroke-width:1.0;"/><ellipse cx="57" cy="286.5547" fill="#222222" rx="6" ry="6" style="stroke:#111111;stroke-width:1.0;"/><line style="stroke:#181818;stroke-width:1.0;" x1="57" x2="57" y1="30" y2="50"/><polygon fill="#181818" points="53,40,57,50,61,40,57,44" style="stroke:#181818;stroke-width:1.0;"/><line style="stroke:#181818;stroke-width:1.0;" x1="57" x2="57" y1="86.3887" y2="106.3887"/><polygon fill="#181818" points="53,96.3887,57,106.3887,61,96.3887,57,100.3887" style="stroke:#181818;stroke-width:1.0;"/><line style="stroke:#181818;stroke-width:1.0;" x1="57" x2="57" y1="142.7773" y2="162.7773"/><polygon fill="#181818" points="53,152.7773,57,162.7773,61,152.7773,57,156.7773" style="stroke:#181818;stroke-width:1.0;"/><line style="stroke:#181818;stroke-width:1.0;" x1="57" x2="57" y1="199.166" y2="219.166"/><polygon fill="#181818" points="53,209.166,57,219.166,61,209.166,57,213.166" style="stroke:#181818;stroke-width:1.0;"/><line style="stroke:#181818;stroke-width:1.0;" x1="57" x2="57" y1="255.5547" y2="275.5547"/><polygon fill="#181818" points="53,265.5547,57,275.5547,61,265.5547,57,269.5547" style="stroke:#181818;stroke-width:1.0;"/><!--SRC=[Aov9B2hXidgwf-7fykwN2tS-dxtEcilg-UwMvxlRd-peUzhUzdH9Er3aMUVo5mjx80gURb_wPEySiBB9p-REX-agBialu080]--></g></svg>